G04 EAGLE Gerber RS-274X export*
G75*
%MOMM*%
%FSLAX34Y34*%
%LPD*%
%INSilkscreen Top*%
%IPPOS*%
%AMOC8*
5,1,8,0,0,1.08239X$1,22.5*%
G01*
%ADD10C,0.101600*%
%ADD11C,0.200000*%
%ADD12C,0.250000*%
%ADD13C,0.152400*%
%ADD14C,0.127000*%
%ADD15C,0.076200*%
%ADD16C,0.203200*%
%ADD17C,0.100000*%
%ADD18C,0.100000*%


D10*
X68601Y85108D02*
X66004Y85108D01*
X65905Y85110D01*
X65805Y85116D01*
X65706Y85125D01*
X65608Y85138D01*
X65510Y85155D01*
X65412Y85176D01*
X65316Y85201D01*
X65221Y85229D01*
X65127Y85261D01*
X65034Y85296D01*
X64942Y85335D01*
X64852Y85378D01*
X64764Y85423D01*
X64677Y85473D01*
X64593Y85525D01*
X64510Y85581D01*
X64430Y85639D01*
X64352Y85701D01*
X64277Y85766D01*
X64204Y85834D01*
X64134Y85904D01*
X64066Y85977D01*
X64001Y86052D01*
X63939Y86130D01*
X63881Y86210D01*
X63825Y86293D01*
X63773Y86377D01*
X63723Y86464D01*
X63678Y86552D01*
X63635Y86642D01*
X63596Y86734D01*
X63561Y86827D01*
X63529Y86921D01*
X63501Y87016D01*
X63476Y87112D01*
X63455Y87210D01*
X63438Y87308D01*
X63425Y87406D01*
X63416Y87505D01*
X63410Y87605D01*
X63408Y87704D01*
X63408Y94196D01*
X63410Y94295D01*
X63416Y94395D01*
X63425Y94494D01*
X63438Y94592D01*
X63455Y94690D01*
X63476Y94788D01*
X63501Y94884D01*
X63529Y94979D01*
X63561Y95073D01*
X63596Y95166D01*
X63635Y95258D01*
X63678Y95348D01*
X63723Y95436D01*
X63773Y95523D01*
X63825Y95607D01*
X63881Y95690D01*
X63939Y95770D01*
X64001Y95848D01*
X64066Y95923D01*
X64134Y95996D01*
X64204Y96066D01*
X64277Y96134D01*
X64352Y96199D01*
X64430Y96261D01*
X64510Y96319D01*
X64593Y96375D01*
X64677Y96427D01*
X64764Y96477D01*
X64852Y96522D01*
X64942Y96565D01*
X65034Y96604D01*
X65126Y96639D01*
X65221Y96671D01*
X65316Y96699D01*
X65412Y96724D01*
X65510Y96745D01*
X65608Y96762D01*
X65706Y96775D01*
X65805Y96784D01*
X65905Y96790D01*
X66004Y96792D01*
X68601Y96792D01*
X72966Y94196D02*
X76212Y96792D01*
X76212Y85108D01*
X79457Y85108D02*
X72966Y85108D01*
X69801Y133108D02*
X67204Y133108D01*
X67105Y133110D01*
X67005Y133116D01*
X66906Y133125D01*
X66808Y133138D01*
X66710Y133155D01*
X66612Y133176D01*
X66516Y133201D01*
X66421Y133229D01*
X66327Y133261D01*
X66234Y133296D01*
X66142Y133335D01*
X66052Y133378D01*
X65964Y133423D01*
X65877Y133473D01*
X65793Y133525D01*
X65710Y133581D01*
X65630Y133639D01*
X65552Y133701D01*
X65477Y133766D01*
X65404Y133834D01*
X65334Y133904D01*
X65266Y133977D01*
X65201Y134052D01*
X65139Y134130D01*
X65081Y134210D01*
X65025Y134293D01*
X64973Y134377D01*
X64923Y134464D01*
X64878Y134552D01*
X64835Y134642D01*
X64796Y134734D01*
X64761Y134827D01*
X64729Y134921D01*
X64701Y135016D01*
X64676Y135112D01*
X64655Y135210D01*
X64638Y135308D01*
X64625Y135406D01*
X64616Y135505D01*
X64610Y135605D01*
X64608Y135704D01*
X64608Y142196D01*
X64610Y142295D01*
X64616Y142395D01*
X64625Y142494D01*
X64638Y142592D01*
X64655Y142690D01*
X64676Y142788D01*
X64701Y142884D01*
X64729Y142979D01*
X64761Y143073D01*
X64796Y143166D01*
X64835Y143258D01*
X64878Y143348D01*
X64923Y143436D01*
X64973Y143523D01*
X65025Y143607D01*
X65081Y143690D01*
X65139Y143770D01*
X65201Y143848D01*
X65266Y143923D01*
X65334Y143996D01*
X65404Y144066D01*
X65477Y144134D01*
X65552Y144199D01*
X65630Y144261D01*
X65710Y144319D01*
X65793Y144375D01*
X65877Y144427D01*
X65964Y144477D01*
X66052Y144522D01*
X66142Y144565D01*
X66234Y144604D01*
X66326Y144639D01*
X66421Y144671D01*
X66516Y144699D01*
X66612Y144724D01*
X66710Y144745D01*
X66808Y144762D01*
X66906Y144775D01*
X67005Y144784D01*
X67105Y144790D01*
X67204Y144792D01*
X69801Y144792D01*
X77736Y144792D02*
X77843Y144790D01*
X77949Y144784D01*
X78055Y144774D01*
X78161Y144761D01*
X78267Y144743D01*
X78371Y144722D01*
X78475Y144697D01*
X78578Y144668D01*
X78679Y144636D01*
X78779Y144599D01*
X78878Y144559D01*
X78976Y144516D01*
X79072Y144469D01*
X79166Y144418D01*
X79258Y144364D01*
X79348Y144307D01*
X79436Y144247D01*
X79521Y144183D01*
X79604Y144116D01*
X79685Y144046D01*
X79763Y143974D01*
X79839Y143898D01*
X79911Y143820D01*
X79981Y143739D01*
X80048Y143656D01*
X80112Y143571D01*
X80172Y143483D01*
X80229Y143393D01*
X80283Y143301D01*
X80334Y143207D01*
X80381Y143111D01*
X80424Y143013D01*
X80464Y142914D01*
X80501Y142814D01*
X80533Y142713D01*
X80562Y142610D01*
X80587Y142506D01*
X80608Y142402D01*
X80626Y142296D01*
X80639Y142190D01*
X80649Y142084D01*
X80655Y141978D01*
X80657Y141871D01*
X77736Y144792D02*
X77615Y144790D01*
X77494Y144784D01*
X77374Y144774D01*
X77253Y144761D01*
X77134Y144743D01*
X77014Y144722D01*
X76896Y144697D01*
X76779Y144668D01*
X76662Y144635D01*
X76547Y144599D01*
X76433Y144558D01*
X76320Y144515D01*
X76208Y144467D01*
X76099Y144416D01*
X75991Y144361D01*
X75884Y144303D01*
X75780Y144242D01*
X75678Y144177D01*
X75578Y144109D01*
X75480Y144038D01*
X75384Y143964D01*
X75291Y143887D01*
X75201Y143806D01*
X75113Y143723D01*
X75028Y143637D01*
X74945Y143548D01*
X74866Y143457D01*
X74789Y143363D01*
X74716Y143267D01*
X74646Y143169D01*
X74579Y143068D01*
X74515Y142965D01*
X74455Y142860D01*
X74398Y142753D01*
X74344Y142645D01*
X74294Y142535D01*
X74248Y142423D01*
X74205Y142310D01*
X74166Y142195D01*
X79684Y139599D02*
X79763Y139676D01*
X79839Y139757D01*
X79912Y139840D01*
X79982Y139925D01*
X80049Y140013D01*
X80113Y140103D01*
X80173Y140195D01*
X80230Y140290D01*
X80284Y140386D01*
X80335Y140484D01*
X80382Y140584D01*
X80426Y140686D01*
X80466Y140789D01*
X80502Y140893D01*
X80534Y140999D01*
X80563Y141105D01*
X80588Y141213D01*
X80610Y141321D01*
X80627Y141431D01*
X80641Y141540D01*
X80650Y141650D01*
X80656Y141761D01*
X80658Y141871D01*
X79684Y139599D02*
X74166Y133108D01*
X80657Y133108D01*
D11*
X293400Y148100D02*
X293422Y148691D01*
X293459Y149281D01*
X293510Y149870D01*
X293575Y150458D01*
X293655Y151044D01*
X293750Y151628D01*
X293858Y152209D01*
X293981Y152788D01*
X294118Y153363D01*
X294269Y153935D01*
X294434Y154503D01*
X294613Y155066D01*
X294806Y155625D01*
X295013Y156180D01*
X295232Y156729D01*
X295466Y157272D01*
X295712Y157810D01*
X295972Y158341D01*
X296245Y158866D01*
X296530Y159384D01*
X296828Y159895D01*
X297139Y160398D01*
X297461Y160893D01*
X297796Y161381D01*
X298143Y161860D01*
X298501Y162331D01*
X298871Y162792D01*
X299252Y163244D01*
X299644Y163687D01*
X300047Y164120D01*
X300460Y164544D01*
X300883Y164956D01*
X301317Y165359D01*
X301760Y165750D01*
X302212Y166131D01*
X302674Y166500D01*
X303145Y166858D01*
X303624Y167205D01*
X304112Y167539D01*
X304608Y167861D01*
X305112Y168171D01*
X305623Y168469D01*
X306141Y168754D01*
X306666Y169026D01*
X307197Y169286D01*
X307735Y169532D01*
X308279Y169765D01*
X308828Y169984D01*
X309382Y170190D01*
X309941Y170382D01*
X310505Y170561D01*
X311073Y170726D01*
X311645Y170876D01*
X312220Y171013D01*
X312799Y171135D01*
X313380Y171243D01*
X313964Y171337D01*
X314550Y171417D01*
X315138Y171482D01*
X315727Y171533D01*
X316318Y171569D01*
X316909Y171591D01*
X317500Y171598D01*
X318091Y171591D01*
X318682Y171569D01*
X319273Y171533D01*
X319862Y171482D01*
X320450Y171417D01*
X321036Y171337D01*
X321620Y171243D01*
X322201Y171135D01*
X322780Y171013D01*
X323355Y170876D01*
X323927Y170726D01*
X324495Y170561D01*
X325059Y170382D01*
X325618Y170190D01*
X326172Y169984D01*
X326721Y169765D01*
X327265Y169532D01*
X327803Y169286D01*
X328334Y169026D01*
X328859Y168754D01*
X329377Y168469D01*
X329888Y168171D01*
X330392Y167861D01*
X330888Y167539D01*
X331376Y167205D01*
X331855Y166858D01*
X332326Y166500D01*
X332788Y166131D01*
X333240Y165750D01*
X333683Y165359D01*
X334117Y164956D01*
X334540Y164544D01*
X334953Y164120D01*
X335356Y163687D01*
X335748Y163244D01*
X336129Y162792D01*
X336499Y162331D01*
X336857Y161860D01*
X337204Y161381D01*
X337539Y160893D01*
X337861Y160398D01*
X338172Y159895D01*
X338470Y159384D01*
X338755Y158866D01*
X339028Y158341D01*
X339288Y157810D01*
X339534Y157272D01*
X339768Y156729D01*
X339987Y156180D01*
X340194Y155625D01*
X340387Y155066D01*
X340566Y154503D01*
X340731Y153935D01*
X340882Y153363D01*
X341019Y152788D01*
X341142Y152209D01*
X341250Y151628D01*
X341345Y151044D01*
X341425Y150458D01*
X341490Y149870D01*
X341541Y149281D01*
X341578Y148691D01*
X341600Y148100D01*
X300350Y134800D02*
X293400Y148100D01*
X300350Y134800D02*
X334650Y134800D01*
X341600Y148100D01*
X289191Y147970D02*
X289193Y148012D01*
X289199Y148054D01*
X289209Y148096D01*
X289222Y148136D01*
X289239Y148175D01*
X289260Y148212D01*
X289284Y148247D01*
X289311Y148279D01*
X289341Y148309D01*
X289373Y148336D01*
X289408Y148360D01*
X289445Y148381D01*
X289484Y148398D01*
X289524Y148411D01*
X289566Y148421D01*
X289608Y148427D01*
X289650Y148429D01*
X289692Y148427D01*
X289734Y148421D01*
X289776Y148411D01*
X289816Y148398D01*
X289855Y148381D01*
X289892Y148360D01*
X289927Y148336D01*
X289959Y148309D01*
X289989Y148279D01*
X290016Y148247D01*
X290040Y148212D01*
X290061Y148175D01*
X290078Y148136D01*
X290091Y148096D01*
X290101Y148054D01*
X290107Y148012D01*
X290109Y147970D01*
X290107Y147928D01*
X290101Y147886D01*
X290091Y147844D01*
X290078Y147804D01*
X290061Y147765D01*
X290040Y147728D01*
X290016Y147693D01*
X289989Y147661D01*
X289959Y147631D01*
X289927Y147604D01*
X289892Y147580D01*
X289855Y147559D01*
X289816Y147542D01*
X289776Y147529D01*
X289734Y147519D01*
X289692Y147513D01*
X289650Y147511D01*
X289608Y147513D01*
X289566Y147519D01*
X289524Y147529D01*
X289484Y147542D01*
X289445Y147559D01*
X289408Y147580D01*
X289373Y147604D01*
X289341Y147631D01*
X289311Y147661D01*
X289284Y147693D01*
X289260Y147728D01*
X289239Y147765D01*
X289222Y147804D01*
X289209Y147844D01*
X289199Y147886D01*
X289193Y147928D01*
X289191Y147970D01*
D10*
X307012Y128162D02*
X307012Y116478D01*
X305714Y116478D02*
X308310Y116478D01*
X308310Y128162D02*
X305714Y128162D01*
X315474Y116478D02*
X318070Y116478D01*
X315474Y116478D02*
X315375Y116480D01*
X315275Y116486D01*
X315176Y116495D01*
X315078Y116508D01*
X314980Y116525D01*
X314882Y116546D01*
X314786Y116571D01*
X314691Y116599D01*
X314597Y116631D01*
X314504Y116666D01*
X314412Y116705D01*
X314322Y116748D01*
X314234Y116793D01*
X314147Y116843D01*
X314063Y116895D01*
X313980Y116951D01*
X313900Y117009D01*
X313822Y117071D01*
X313747Y117136D01*
X313674Y117204D01*
X313604Y117274D01*
X313536Y117347D01*
X313471Y117422D01*
X313409Y117500D01*
X313351Y117580D01*
X313295Y117663D01*
X313243Y117747D01*
X313193Y117834D01*
X313148Y117922D01*
X313105Y118012D01*
X313066Y118104D01*
X313031Y118197D01*
X312999Y118291D01*
X312971Y118386D01*
X312946Y118482D01*
X312925Y118580D01*
X312908Y118678D01*
X312895Y118776D01*
X312886Y118875D01*
X312880Y118975D01*
X312878Y119074D01*
X312877Y119074D02*
X312877Y125566D01*
X312878Y125566D02*
X312880Y125665D01*
X312886Y125765D01*
X312895Y125864D01*
X312908Y125962D01*
X312925Y126060D01*
X312946Y126158D01*
X312971Y126254D01*
X312999Y126349D01*
X313031Y126443D01*
X313066Y126536D01*
X313105Y126628D01*
X313148Y126718D01*
X313193Y126806D01*
X313243Y126893D01*
X313295Y126977D01*
X313351Y127060D01*
X313409Y127140D01*
X313471Y127218D01*
X313536Y127293D01*
X313604Y127366D01*
X313674Y127436D01*
X313747Y127504D01*
X313822Y127569D01*
X313900Y127631D01*
X313980Y127689D01*
X314063Y127745D01*
X314147Y127797D01*
X314234Y127847D01*
X314322Y127892D01*
X314412Y127935D01*
X314504Y127974D01*
X314596Y128009D01*
X314691Y128041D01*
X314786Y128069D01*
X314882Y128094D01*
X314980Y128115D01*
X315078Y128132D01*
X315176Y128145D01*
X315275Y128154D01*
X315375Y128160D01*
X315474Y128162D01*
X318070Y128162D01*
X326005Y128162D02*
X326112Y128160D01*
X326218Y128154D01*
X326324Y128144D01*
X326430Y128131D01*
X326536Y128113D01*
X326640Y128092D01*
X326744Y128067D01*
X326847Y128038D01*
X326948Y128006D01*
X327048Y127969D01*
X327147Y127929D01*
X327245Y127886D01*
X327341Y127839D01*
X327435Y127788D01*
X327527Y127734D01*
X327617Y127677D01*
X327705Y127617D01*
X327790Y127553D01*
X327873Y127486D01*
X327954Y127416D01*
X328032Y127344D01*
X328108Y127268D01*
X328180Y127190D01*
X328250Y127109D01*
X328317Y127026D01*
X328381Y126941D01*
X328441Y126853D01*
X328498Y126763D01*
X328552Y126671D01*
X328603Y126577D01*
X328650Y126481D01*
X328693Y126383D01*
X328733Y126284D01*
X328770Y126184D01*
X328802Y126083D01*
X328831Y125980D01*
X328856Y125876D01*
X328877Y125772D01*
X328895Y125666D01*
X328908Y125560D01*
X328918Y125454D01*
X328924Y125348D01*
X328926Y125241D01*
X326005Y128162D02*
X325884Y128160D01*
X325763Y128154D01*
X325643Y128144D01*
X325522Y128131D01*
X325403Y128113D01*
X325283Y128092D01*
X325165Y128067D01*
X325048Y128038D01*
X324931Y128005D01*
X324816Y127969D01*
X324702Y127928D01*
X324589Y127885D01*
X324477Y127837D01*
X324368Y127786D01*
X324260Y127731D01*
X324153Y127673D01*
X324049Y127612D01*
X323947Y127547D01*
X323847Y127479D01*
X323749Y127408D01*
X323653Y127334D01*
X323560Y127257D01*
X323470Y127176D01*
X323382Y127093D01*
X323297Y127007D01*
X323214Y126918D01*
X323135Y126827D01*
X323058Y126733D01*
X322985Y126637D01*
X322915Y126539D01*
X322848Y126438D01*
X322784Y126335D01*
X322724Y126230D01*
X322667Y126123D01*
X322613Y126015D01*
X322563Y125905D01*
X322517Y125793D01*
X322474Y125680D01*
X322435Y125565D01*
X327953Y122969D02*
X328032Y123046D01*
X328108Y123127D01*
X328181Y123210D01*
X328251Y123295D01*
X328318Y123383D01*
X328382Y123473D01*
X328442Y123565D01*
X328499Y123660D01*
X328553Y123756D01*
X328604Y123854D01*
X328651Y123954D01*
X328695Y124056D01*
X328735Y124159D01*
X328771Y124263D01*
X328803Y124369D01*
X328832Y124475D01*
X328857Y124583D01*
X328879Y124691D01*
X328896Y124801D01*
X328910Y124910D01*
X328919Y125020D01*
X328925Y125131D01*
X328927Y125241D01*
X327953Y122969D02*
X322435Y116478D01*
X328926Y116478D01*
D12*
X97250Y128950D02*
X97252Y129020D01*
X97258Y129090D01*
X97268Y129159D01*
X97281Y129228D01*
X97299Y129296D01*
X97320Y129363D01*
X97345Y129428D01*
X97374Y129492D01*
X97406Y129555D01*
X97442Y129615D01*
X97481Y129673D01*
X97523Y129729D01*
X97568Y129783D01*
X97616Y129834D01*
X97667Y129882D01*
X97721Y129927D01*
X97777Y129969D01*
X97835Y130008D01*
X97895Y130044D01*
X97958Y130076D01*
X98022Y130105D01*
X98087Y130130D01*
X98154Y130151D01*
X98222Y130169D01*
X98291Y130182D01*
X98360Y130192D01*
X98430Y130198D01*
X98500Y130200D01*
X98570Y130198D01*
X98640Y130192D01*
X98709Y130182D01*
X98778Y130169D01*
X98846Y130151D01*
X98913Y130130D01*
X98978Y130105D01*
X99042Y130076D01*
X99105Y130044D01*
X99165Y130008D01*
X99223Y129969D01*
X99279Y129927D01*
X99333Y129882D01*
X99384Y129834D01*
X99432Y129783D01*
X99477Y129729D01*
X99519Y129673D01*
X99558Y129615D01*
X99594Y129555D01*
X99626Y129492D01*
X99655Y129428D01*
X99680Y129363D01*
X99701Y129296D01*
X99719Y129228D01*
X99732Y129159D01*
X99742Y129090D01*
X99748Y129020D01*
X99750Y128950D01*
X99748Y128880D01*
X99742Y128810D01*
X99732Y128741D01*
X99719Y128672D01*
X99701Y128604D01*
X99680Y128537D01*
X99655Y128472D01*
X99626Y128408D01*
X99594Y128345D01*
X99558Y128285D01*
X99519Y128227D01*
X99477Y128171D01*
X99432Y128117D01*
X99384Y128066D01*
X99333Y128018D01*
X99279Y127973D01*
X99223Y127931D01*
X99165Y127892D01*
X99105Y127856D01*
X99042Y127824D01*
X98978Y127795D01*
X98913Y127770D01*
X98846Y127749D01*
X98778Y127731D01*
X98709Y127718D01*
X98640Y127708D01*
X98570Y127702D01*
X98500Y127700D01*
X98430Y127702D01*
X98360Y127708D01*
X98291Y127718D01*
X98222Y127731D01*
X98154Y127749D01*
X98087Y127770D01*
X98022Y127795D01*
X97958Y127824D01*
X97895Y127856D01*
X97835Y127892D01*
X97777Y127931D01*
X97721Y127973D01*
X97667Y128018D01*
X97616Y128066D01*
X97568Y128117D01*
X97523Y128171D01*
X97481Y128227D01*
X97442Y128285D01*
X97406Y128345D01*
X97374Y128408D01*
X97345Y128472D01*
X97320Y128537D01*
X97299Y128604D01*
X97281Y128672D01*
X97268Y128741D01*
X97258Y128810D01*
X97252Y128880D01*
X97250Y128950D01*
D10*
X70692Y116542D02*
X70692Y104858D01*
X69394Y104858D02*
X71990Y104858D01*
X71990Y116542D02*
X69394Y116542D01*
X79154Y104858D02*
X81750Y104858D01*
X79154Y104858D02*
X79055Y104860D01*
X78955Y104866D01*
X78856Y104875D01*
X78758Y104888D01*
X78660Y104905D01*
X78562Y104926D01*
X78466Y104951D01*
X78371Y104979D01*
X78277Y105011D01*
X78184Y105046D01*
X78092Y105085D01*
X78002Y105128D01*
X77914Y105173D01*
X77827Y105223D01*
X77743Y105275D01*
X77660Y105331D01*
X77580Y105389D01*
X77502Y105451D01*
X77427Y105516D01*
X77354Y105584D01*
X77284Y105654D01*
X77216Y105727D01*
X77151Y105802D01*
X77089Y105880D01*
X77031Y105960D01*
X76975Y106043D01*
X76923Y106127D01*
X76873Y106214D01*
X76828Y106302D01*
X76785Y106392D01*
X76746Y106484D01*
X76711Y106577D01*
X76679Y106671D01*
X76651Y106766D01*
X76626Y106862D01*
X76605Y106960D01*
X76588Y107058D01*
X76575Y107156D01*
X76566Y107255D01*
X76560Y107355D01*
X76558Y107454D01*
X76557Y107454D02*
X76557Y113946D01*
X76558Y113946D02*
X76560Y114045D01*
X76566Y114145D01*
X76575Y114244D01*
X76588Y114342D01*
X76605Y114440D01*
X76626Y114538D01*
X76651Y114634D01*
X76679Y114729D01*
X76711Y114823D01*
X76746Y114916D01*
X76785Y115008D01*
X76828Y115098D01*
X76873Y115186D01*
X76923Y115273D01*
X76975Y115357D01*
X77031Y115440D01*
X77089Y115520D01*
X77151Y115598D01*
X77216Y115673D01*
X77284Y115746D01*
X77354Y115816D01*
X77427Y115884D01*
X77502Y115949D01*
X77580Y116011D01*
X77660Y116069D01*
X77743Y116125D01*
X77827Y116177D01*
X77914Y116227D01*
X78002Y116272D01*
X78092Y116315D01*
X78184Y116354D01*
X78276Y116389D01*
X78371Y116421D01*
X78466Y116449D01*
X78562Y116474D01*
X78660Y116495D01*
X78758Y116512D01*
X78856Y116525D01*
X78955Y116534D01*
X79055Y116540D01*
X79154Y116542D01*
X81750Y116542D01*
X86115Y104858D02*
X89361Y104858D01*
X89474Y104860D01*
X89587Y104866D01*
X89700Y104876D01*
X89813Y104890D01*
X89925Y104907D01*
X90036Y104929D01*
X90146Y104954D01*
X90256Y104984D01*
X90364Y105017D01*
X90471Y105054D01*
X90577Y105094D01*
X90681Y105139D01*
X90784Y105187D01*
X90885Y105238D01*
X90984Y105293D01*
X91081Y105351D01*
X91176Y105413D01*
X91269Y105478D01*
X91359Y105546D01*
X91447Y105617D01*
X91533Y105692D01*
X91616Y105769D01*
X91696Y105849D01*
X91773Y105932D01*
X91848Y106018D01*
X91919Y106106D01*
X91987Y106196D01*
X92052Y106289D01*
X92114Y106384D01*
X92172Y106481D01*
X92227Y106580D01*
X92278Y106681D01*
X92326Y106784D01*
X92371Y106888D01*
X92411Y106994D01*
X92448Y107101D01*
X92481Y107209D01*
X92511Y107319D01*
X92536Y107429D01*
X92558Y107540D01*
X92575Y107652D01*
X92589Y107765D01*
X92599Y107878D01*
X92605Y107991D01*
X92607Y108104D01*
X92605Y108217D01*
X92599Y108330D01*
X92589Y108443D01*
X92575Y108556D01*
X92558Y108668D01*
X92536Y108779D01*
X92511Y108889D01*
X92481Y108999D01*
X92448Y109107D01*
X92411Y109214D01*
X92371Y109320D01*
X92326Y109424D01*
X92278Y109527D01*
X92227Y109628D01*
X92172Y109727D01*
X92114Y109824D01*
X92052Y109919D01*
X91987Y110012D01*
X91919Y110102D01*
X91848Y110190D01*
X91773Y110276D01*
X91696Y110359D01*
X91616Y110439D01*
X91533Y110516D01*
X91447Y110591D01*
X91359Y110662D01*
X91269Y110730D01*
X91176Y110795D01*
X91081Y110857D01*
X90984Y110915D01*
X90885Y110970D01*
X90784Y111021D01*
X90681Y111069D01*
X90577Y111114D01*
X90471Y111154D01*
X90364Y111191D01*
X90256Y111224D01*
X90146Y111254D01*
X90036Y111279D01*
X89925Y111301D01*
X89813Y111318D01*
X89700Y111332D01*
X89587Y111342D01*
X89474Y111348D01*
X89361Y111350D01*
X90010Y116542D02*
X86115Y116542D01*
X90010Y116542D02*
X90111Y116540D01*
X90211Y116534D01*
X90311Y116524D01*
X90411Y116511D01*
X90510Y116493D01*
X90609Y116472D01*
X90706Y116447D01*
X90803Y116418D01*
X90898Y116385D01*
X90992Y116349D01*
X91084Y116309D01*
X91175Y116266D01*
X91264Y116219D01*
X91351Y116169D01*
X91437Y116115D01*
X91520Y116058D01*
X91600Y115998D01*
X91679Y115935D01*
X91755Y115868D01*
X91828Y115799D01*
X91898Y115727D01*
X91966Y115653D01*
X92031Y115576D01*
X92092Y115496D01*
X92151Y115414D01*
X92206Y115330D01*
X92258Y115244D01*
X92307Y115156D01*
X92352Y115066D01*
X92394Y114974D01*
X92432Y114881D01*
X92466Y114786D01*
X92497Y114691D01*
X92524Y114594D01*
X92547Y114496D01*
X92567Y114397D01*
X92582Y114297D01*
X92594Y114197D01*
X92602Y114097D01*
X92606Y113996D01*
X92606Y113896D01*
X92602Y113795D01*
X92594Y113695D01*
X92582Y113595D01*
X92567Y113495D01*
X92547Y113396D01*
X92524Y113298D01*
X92497Y113201D01*
X92466Y113106D01*
X92432Y113011D01*
X92394Y112918D01*
X92352Y112826D01*
X92307Y112736D01*
X92258Y112648D01*
X92206Y112562D01*
X92151Y112478D01*
X92092Y112396D01*
X92031Y112316D01*
X91966Y112239D01*
X91898Y112165D01*
X91828Y112093D01*
X91755Y112024D01*
X91679Y111957D01*
X91600Y111894D01*
X91520Y111834D01*
X91437Y111777D01*
X91351Y111723D01*
X91264Y111673D01*
X91175Y111626D01*
X91084Y111583D01*
X90992Y111543D01*
X90898Y111507D01*
X90803Y111474D01*
X90706Y111445D01*
X90609Y111420D01*
X90510Y111399D01*
X90411Y111381D01*
X90311Y111368D01*
X90211Y111358D01*
X90111Y111352D01*
X90010Y111350D01*
X90010Y111349D02*
X87414Y111349D01*
D13*
X400050Y38100D02*
X412750Y38100D01*
X419100Y31750D01*
X419100Y19050D01*
X412750Y12700D01*
X374650Y38100D02*
X368300Y31750D01*
X374650Y38100D02*
X387350Y38100D01*
X393700Y31750D01*
X393700Y19050D01*
X387350Y12700D01*
X374650Y12700D01*
X368300Y19050D01*
X393700Y31750D02*
X400050Y38100D01*
X393700Y19050D02*
X400050Y12700D01*
X412750Y12700D01*
X336550Y38100D02*
X323850Y38100D01*
X336550Y38100D02*
X342900Y31750D01*
X342900Y19050D01*
X336550Y12700D01*
X342900Y31750D02*
X349250Y38100D01*
X361950Y38100D01*
X368300Y31750D01*
X368300Y19050D01*
X361950Y12700D01*
X349250Y12700D01*
X342900Y19050D01*
X298450Y38100D02*
X292100Y31750D01*
X298450Y38100D02*
X311150Y38100D01*
X317500Y31750D01*
X317500Y19050D01*
X311150Y12700D01*
X298450Y12700D01*
X292100Y19050D01*
X317500Y31750D02*
X323850Y38100D01*
X317500Y19050D02*
X323850Y12700D01*
X336550Y12700D01*
X260350Y38100D02*
X247650Y38100D01*
X260350Y38100D02*
X266700Y31750D01*
X266700Y19050D01*
X260350Y12700D01*
X266700Y31750D02*
X273050Y38100D01*
X285750Y38100D01*
X292100Y31750D01*
X292100Y19050D01*
X285750Y12700D01*
X273050Y12700D01*
X266700Y19050D01*
X222250Y38100D02*
X215900Y31750D01*
X222250Y38100D02*
X234950Y38100D01*
X241300Y31750D01*
X241300Y19050D01*
X234950Y12700D01*
X222250Y12700D01*
X215900Y19050D01*
X241300Y31750D02*
X247650Y38100D01*
X241300Y19050D02*
X247650Y12700D01*
X260350Y12700D01*
X184150Y38100D02*
X171450Y38100D01*
X184150Y38100D02*
X190500Y31750D01*
X190500Y19050D01*
X184150Y12700D01*
X190500Y31750D02*
X196850Y38100D01*
X209550Y38100D01*
X215900Y31750D01*
X215900Y19050D01*
X209550Y12700D01*
X196850Y12700D01*
X190500Y19050D01*
X146050Y38100D02*
X139700Y31750D01*
X146050Y38100D02*
X158750Y38100D01*
X165100Y31750D01*
X165100Y19050D01*
X158750Y12700D01*
X146050Y12700D01*
X139700Y19050D01*
X165100Y31750D02*
X171450Y38100D01*
X165100Y19050D02*
X171450Y12700D01*
X184150Y12700D01*
X107950Y38100D02*
X95250Y38100D01*
X107950Y38100D02*
X114300Y31750D01*
X114300Y19050D01*
X107950Y12700D01*
X114300Y31750D02*
X120650Y38100D01*
X133350Y38100D01*
X139700Y31750D01*
X139700Y19050D01*
X133350Y12700D01*
X120650Y12700D01*
X114300Y19050D01*
X69850Y38100D02*
X63500Y31750D01*
X69850Y38100D02*
X82550Y38100D01*
X88900Y31750D01*
X88900Y19050D01*
X82550Y12700D01*
X69850Y12700D01*
X63500Y19050D01*
X88900Y31750D02*
X95250Y38100D01*
X88900Y19050D02*
X95250Y12700D01*
X107950Y12700D01*
X31750Y38100D02*
X19050Y38100D01*
X31750Y38100D02*
X38100Y31750D01*
X38100Y19050D01*
X31750Y12700D01*
X38100Y31750D02*
X44450Y38100D01*
X57150Y38100D01*
X63500Y31750D01*
X63500Y19050D01*
X57150Y12700D01*
X44450Y12700D01*
X38100Y19050D01*
X12700Y19050D02*
X12700Y31750D01*
X19050Y38100D01*
X12700Y19050D02*
X19050Y12700D01*
X31750Y12700D01*
X419100Y31750D02*
X425450Y38100D01*
X438150Y38100D01*
X444500Y31750D01*
X444500Y19050D01*
X438150Y12700D01*
X425450Y12700D01*
X419100Y19050D01*
D14*
X18383Y46863D02*
X18383Y55753D01*
X18383Y46863D02*
X18381Y46763D01*
X18375Y46664D01*
X18365Y46564D01*
X18352Y46466D01*
X18334Y46367D01*
X18313Y46270D01*
X18288Y46174D01*
X18259Y46078D01*
X18226Y45984D01*
X18190Y45891D01*
X18150Y45800D01*
X18106Y45710D01*
X18059Y45622D01*
X18009Y45536D01*
X17955Y45452D01*
X17898Y45370D01*
X17838Y45291D01*
X17774Y45213D01*
X17708Y45139D01*
X17639Y45067D01*
X17567Y44998D01*
X17493Y44932D01*
X17415Y44868D01*
X17336Y44808D01*
X17254Y44751D01*
X17170Y44697D01*
X17084Y44647D01*
X16996Y44600D01*
X16906Y44556D01*
X16815Y44516D01*
X16722Y44480D01*
X16628Y44447D01*
X16532Y44418D01*
X16436Y44393D01*
X16339Y44372D01*
X16240Y44354D01*
X16142Y44341D01*
X16042Y44331D01*
X15943Y44325D01*
X15843Y44323D01*
X14573Y44323D01*
X24363Y44323D02*
X24363Y55753D01*
X27538Y55753D01*
X27649Y55751D01*
X27759Y55745D01*
X27870Y55736D01*
X27980Y55722D01*
X28089Y55705D01*
X28198Y55684D01*
X28306Y55659D01*
X28413Y55630D01*
X28519Y55598D01*
X28624Y55562D01*
X28727Y55522D01*
X28829Y55479D01*
X28930Y55432D01*
X29029Y55381D01*
X29126Y55328D01*
X29220Y55271D01*
X29313Y55210D01*
X29404Y55147D01*
X29493Y55080D01*
X29579Y55010D01*
X29662Y54937D01*
X29744Y54862D01*
X29822Y54784D01*
X29897Y54702D01*
X29970Y54619D01*
X30040Y54533D01*
X30107Y54444D01*
X30170Y54353D01*
X30231Y54260D01*
X30288Y54165D01*
X30341Y54069D01*
X30392Y53970D01*
X30439Y53869D01*
X30482Y53767D01*
X30522Y53664D01*
X30558Y53559D01*
X30590Y53453D01*
X30619Y53346D01*
X30644Y53238D01*
X30665Y53129D01*
X30682Y53020D01*
X30696Y52910D01*
X30705Y52799D01*
X30711Y52689D01*
X30713Y52578D01*
X30711Y52467D01*
X30705Y52357D01*
X30696Y52246D01*
X30682Y52136D01*
X30665Y52027D01*
X30644Y51918D01*
X30619Y51810D01*
X30590Y51703D01*
X30558Y51597D01*
X30522Y51492D01*
X30482Y51389D01*
X30439Y51287D01*
X30392Y51186D01*
X30341Y51087D01*
X30288Y50990D01*
X30231Y50896D01*
X30170Y50803D01*
X30107Y50712D01*
X30040Y50623D01*
X29970Y50537D01*
X29897Y50454D01*
X29822Y50372D01*
X29744Y50294D01*
X29662Y50219D01*
X29579Y50146D01*
X29493Y50076D01*
X29404Y50009D01*
X29313Y49946D01*
X29220Y49885D01*
X29125Y49828D01*
X29029Y49775D01*
X28930Y49724D01*
X28829Y49677D01*
X28727Y49634D01*
X28624Y49594D01*
X28519Y49558D01*
X28413Y49526D01*
X28306Y49497D01*
X28198Y49472D01*
X28089Y49451D01*
X27980Y49434D01*
X27870Y49420D01*
X27759Y49411D01*
X27649Y49405D01*
X27538Y49403D01*
X24363Y49403D01*
X35222Y53213D02*
X38397Y55753D01*
X38397Y44323D01*
X35222Y44323D02*
X41572Y44323D01*
D13*
X400450Y215700D02*
X413150Y215700D01*
X419500Y209350D01*
X419500Y196650D01*
X413150Y190300D01*
X375050Y215700D02*
X368700Y209350D01*
X375050Y215700D02*
X387750Y215700D01*
X394100Y209350D01*
X394100Y196650D01*
X387750Y190300D01*
X375050Y190300D01*
X368700Y196650D01*
X394100Y209350D02*
X400450Y215700D01*
X394100Y196650D02*
X400450Y190300D01*
X413150Y190300D01*
X336950Y215700D02*
X324250Y215700D01*
X336950Y215700D02*
X343300Y209350D01*
X343300Y196650D01*
X336950Y190300D01*
X343300Y209350D02*
X349650Y215700D01*
X362350Y215700D01*
X368700Y209350D01*
X368700Y196650D01*
X362350Y190300D01*
X349650Y190300D01*
X343300Y196650D01*
X298850Y215700D02*
X292500Y209350D01*
X298850Y215700D02*
X311550Y215700D01*
X317900Y209350D01*
X317900Y196650D01*
X311550Y190300D01*
X298850Y190300D01*
X292500Y196650D01*
X317900Y209350D02*
X324250Y215700D01*
X317900Y196650D02*
X324250Y190300D01*
X336950Y190300D01*
X260750Y215700D02*
X248050Y215700D01*
X260750Y215700D02*
X267100Y209350D01*
X267100Y196650D01*
X260750Y190300D01*
X267100Y209350D02*
X273450Y215700D01*
X286150Y215700D01*
X292500Y209350D01*
X292500Y196650D01*
X286150Y190300D01*
X273450Y190300D01*
X267100Y196650D01*
X222650Y215700D02*
X216300Y209350D01*
X222650Y215700D02*
X235350Y215700D01*
X241700Y209350D01*
X241700Y196650D01*
X235350Y190300D01*
X222650Y190300D01*
X216300Y196650D01*
X241700Y209350D02*
X248050Y215700D01*
X241700Y196650D02*
X248050Y190300D01*
X260750Y190300D01*
X184550Y215700D02*
X171850Y215700D01*
X184550Y215700D02*
X190900Y209350D01*
X190900Y196650D01*
X184550Y190300D01*
X190900Y209350D02*
X197250Y215700D01*
X209950Y215700D01*
X216300Y209350D01*
X216300Y196650D01*
X209950Y190300D01*
X197250Y190300D01*
X190900Y196650D01*
X146450Y215700D02*
X140100Y209350D01*
X146450Y215700D02*
X159150Y215700D01*
X165500Y209350D01*
X165500Y196650D01*
X159150Y190300D01*
X146450Y190300D01*
X140100Y196650D01*
X165500Y209350D02*
X171850Y215700D01*
X165500Y196650D02*
X171850Y190300D01*
X184550Y190300D01*
X108350Y215700D02*
X95650Y215700D01*
X108350Y215700D02*
X114700Y209350D01*
X114700Y196650D01*
X108350Y190300D01*
X114700Y209350D02*
X121050Y215700D01*
X133750Y215700D01*
X140100Y209350D01*
X140100Y196650D01*
X133750Y190300D01*
X121050Y190300D01*
X114700Y196650D01*
X70250Y215700D02*
X63900Y209350D01*
X70250Y215700D02*
X82950Y215700D01*
X89300Y209350D01*
X89300Y196650D01*
X82950Y190300D01*
X70250Y190300D01*
X63900Y196650D01*
X89300Y209350D02*
X95650Y215700D01*
X89300Y196650D02*
X95650Y190300D01*
X108350Y190300D01*
X32150Y215700D02*
X19450Y215700D01*
X32150Y215700D02*
X38500Y209350D01*
X38500Y196650D01*
X32150Y190300D01*
X38500Y209350D02*
X44850Y215700D01*
X57550Y215700D01*
X63900Y209350D01*
X63900Y196650D01*
X57550Y190300D01*
X44850Y190300D01*
X38500Y196650D01*
X13100Y196650D02*
X13100Y209350D01*
X19450Y215700D01*
X13100Y196650D02*
X19450Y190300D01*
X32150Y190300D01*
X419500Y209350D02*
X425850Y215700D01*
X438550Y215700D01*
X444900Y209350D01*
X444900Y196650D01*
X438550Y190300D01*
X425850Y190300D01*
X419500Y196650D01*
D14*
X16783Y183353D02*
X16783Y174463D01*
X16781Y174363D01*
X16775Y174264D01*
X16765Y174164D01*
X16752Y174066D01*
X16734Y173967D01*
X16713Y173870D01*
X16688Y173774D01*
X16659Y173678D01*
X16626Y173584D01*
X16590Y173491D01*
X16550Y173400D01*
X16506Y173310D01*
X16459Y173222D01*
X16409Y173136D01*
X16355Y173052D01*
X16298Y172970D01*
X16238Y172891D01*
X16174Y172813D01*
X16108Y172739D01*
X16039Y172667D01*
X15967Y172598D01*
X15893Y172532D01*
X15815Y172468D01*
X15736Y172408D01*
X15654Y172351D01*
X15570Y172297D01*
X15484Y172247D01*
X15396Y172200D01*
X15306Y172156D01*
X15215Y172116D01*
X15122Y172080D01*
X15028Y172047D01*
X14932Y172018D01*
X14836Y171993D01*
X14739Y171972D01*
X14640Y171954D01*
X14542Y171941D01*
X14442Y171931D01*
X14343Y171925D01*
X14243Y171923D01*
X12973Y171923D01*
X22763Y171923D02*
X22763Y183353D01*
X25938Y183353D01*
X26049Y183351D01*
X26159Y183345D01*
X26270Y183336D01*
X26380Y183322D01*
X26489Y183305D01*
X26598Y183284D01*
X26706Y183259D01*
X26813Y183230D01*
X26919Y183198D01*
X27024Y183162D01*
X27127Y183122D01*
X27229Y183079D01*
X27330Y183032D01*
X27429Y182981D01*
X27526Y182928D01*
X27620Y182871D01*
X27713Y182810D01*
X27804Y182747D01*
X27893Y182680D01*
X27979Y182610D01*
X28062Y182537D01*
X28144Y182462D01*
X28222Y182384D01*
X28297Y182302D01*
X28370Y182219D01*
X28440Y182133D01*
X28507Y182044D01*
X28570Y181953D01*
X28631Y181860D01*
X28688Y181765D01*
X28741Y181669D01*
X28792Y181570D01*
X28839Y181469D01*
X28882Y181367D01*
X28922Y181264D01*
X28958Y181159D01*
X28990Y181053D01*
X29019Y180946D01*
X29044Y180838D01*
X29065Y180729D01*
X29082Y180620D01*
X29096Y180510D01*
X29105Y180399D01*
X29111Y180289D01*
X29113Y180178D01*
X29111Y180067D01*
X29105Y179957D01*
X29096Y179846D01*
X29082Y179736D01*
X29065Y179627D01*
X29044Y179518D01*
X29019Y179410D01*
X28990Y179303D01*
X28958Y179197D01*
X28922Y179092D01*
X28882Y178989D01*
X28839Y178887D01*
X28792Y178786D01*
X28741Y178687D01*
X28688Y178590D01*
X28631Y178496D01*
X28570Y178403D01*
X28507Y178312D01*
X28440Y178223D01*
X28370Y178137D01*
X28297Y178054D01*
X28222Y177972D01*
X28144Y177894D01*
X28062Y177819D01*
X27979Y177746D01*
X27893Y177676D01*
X27804Y177609D01*
X27713Y177546D01*
X27620Y177485D01*
X27525Y177428D01*
X27429Y177375D01*
X27330Y177324D01*
X27229Y177277D01*
X27127Y177234D01*
X27024Y177194D01*
X26919Y177158D01*
X26813Y177126D01*
X26706Y177097D01*
X26598Y177072D01*
X26489Y177051D01*
X26380Y177034D01*
X26270Y177020D01*
X26159Y177011D01*
X26049Y177005D01*
X25938Y177003D01*
X22763Y177003D01*
X37114Y183354D02*
X37218Y183352D01*
X37323Y183346D01*
X37427Y183337D01*
X37530Y183324D01*
X37633Y183306D01*
X37735Y183286D01*
X37837Y183261D01*
X37937Y183233D01*
X38037Y183201D01*
X38135Y183165D01*
X38232Y183126D01*
X38327Y183084D01*
X38421Y183038D01*
X38513Y182988D01*
X38603Y182936D01*
X38691Y182880D01*
X38777Y182820D01*
X38861Y182758D01*
X38942Y182693D01*
X39021Y182625D01*
X39098Y182553D01*
X39171Y182480D01*
X39243Y182403D01*
X39311Y182324D01*
X39376Y182243D01*
X39438Y182159D01*
X39498Y182073D01*
X39554Y181985D01*
X39606Y181895D01*
X39656Y181803D01*
X39702Y181709D01*
X39744Y181614D01*
X39783Y181517D01*
X39819Y181419D01*
X39851Y181319D01*
X39879Y181219D01*
X39904Y181117D01*
X39924Y181015D01*
X39942Y180912D01*
X39955Y180809D01*
X39964Y180705D01*
X39970Y180600D01*
X39972Y180496D01*
X37114Y183353D02*
X36996Y183351D01*
X36877Y183345D01*
X36759Y183336D01*
X36642Y183323D01*
X36525Y183305D01*
X36408Y183285D01*
X36292Y183260D01*
X36177Y183232D01*
X36064Y183199D01*
X35951Y183164D01*
X35839Y183124D01*
X35729Y183082D01*
X35620Y183035D01*
X35512Y182985D01*
X35407Y182932D01*
X35303Y182875D01*
X35201Y182815D01*
X35101Y182752D01*
X35003Y182685D01*
X34907Y182616D01*
X34814Y182543D01*
X34723Y182467D01*
X34634Y182389D01*
X34548Y182307D01*
X34465Y182223D01*
X34384Y182137D01*
X34307Y182047D01*
X34232Y181956D01*
X34160Y181862D01*
X34091Y181765D01*
X34026Y181667D01*
X33963Y181566D01*
X33904Y181463D01*
X33848Y181359D01*
X33796Y181253D01*
X33747Y181145D01*
X33702Y181036D01*
X33660Y180925D01*
X33622Y180813D01*
X39020Y178274D02*
X39096Y178349D01*
X39171Y178428D01*
X39242Y178509D01*
X39311Y178593D01*
X39376Y178679D01*
X39438Y178767D01*
X39498Y178857D01*
X39554Y178949D01*
X39607Y179044D01*
X39656Y179140D01*
X39702Y179238D01*
X39745Y179337D01*
X39784Y179438D01*
X39819Y179540D01*
X39851Y179643D01*
X39879Y179747D01*
X39904Y179852D01*
X39925Y179959D01*
X39942Y180065D01*
X39955Y180172D01*
X39964Y180280D01*
X39970Y180388D01*
X39972Y180496D01*
X39019Y178273D02*
X33622Y171923D01*
X39972Y171923D01*
D10*
X75758Y75242D02*
X75758Y63558D01*
X75758Y75242D02*
X79004Y75242D01*
X79117Y75240D01*
X79230Y75234D01*
X79343Y75224D01*
X79456Y75210D01*
X79568Y75193D01*
X79679Y75171D01*
X79789Y75146D01*
X79899Y75116D01*
X80007Y75083D01*
X80114Y75046D01*
X80220Y75006D01*
X80324Y74961D01*
X80427Y74913D01*
X80528Y74862D01*
X80627Y74807D01*
X80724Y74749D01*
X80819Y74687D01*
X80912Y74622D01*
X81002Y74554D01*
X81090Y74483D01*
X81176Y74408D01*
X81259Y74331D01*
X81339Y74251D01*
X81416Y74168D01*
X81491Y74082D01*
X81562Y73994D01*
X81630Y73904D01*
X81695Y73811D01*
X81757Y73716D01*
X81815Y73619D01*
X81870Y73520D01*
X81921Y73419D01*
X81969Y73316D01*
X82014Y73212D01*
X82054Y73106D01*
X82091Y72999D01*
X82124Y72891D01*
X82154Y72781D01*
X82179Y72671D01*
X82201Y72560D01*
X82218Y72448D01*
X82232Y72335D01*
X82242Y72222D01*
X82248Y72109D01*
X82250Y71996D01*
X82248Y71883D01*
X82242Y71770D01*
X82232Y71657D01*
X82218Y71544D01*
X82201Y71432D01*
X82179Y71321D01*
X82154Y71211D01*
X82124Y71101D01*
X82091Y70993D01*
X82054Y70886D01*
X82014Y70780D01*
X81969Y70676D01*
X81921Y70573D01*
X81870Y70472D01*
X81815Y70373D01*
X81757Y70276D01*
X81695Y70181D01*
X81630Y70088D01*
X81562Y69998D01*
X81491Y69910D01*
X81416Y69824D01*
X81339Y69741D01*
X81259Y69661D01*
X81176Y69584D01*
X81090Y69509D01*
X81002Y69438D01*
X80912Y69370D01*
X80819Y69305D01*
X80724Y69243D01*
X80627Y69185D01*
X80528Y69130D01*
X80427Y69079D01*
X80324Y69031D01*
X80220Y68986D01*
X80114Y68946D01*
X80007Y68909D01*
X79899Y68876D01*
X79789Y68846D01*
X79679Y68821D01*
X79568Y68799D01*
X79456Y68782D01*
X79343Y68768D01*
X79230Y68758D01*
X79117Y68752D01*
X79004Y68750D01*
X79004Y68751D02*
X75758Y68751D01*
X79653Y68751D02*
X82249Y63558D01*
X87114Y72646D02*
X90360Y75242D01*
X90360Y63558D01*
X93605Y63558D02*
X87114Y63558D01*
D13*
X251051Y63472D02*
X258235Y56288D01*
X183519Y142498D02*
X176155Y149862D01*
X267934Y148245D02*
X275118Y155430D01*
X188009Y117174D02*
X188009Y111426D01*
D15*
X164137Y98609D02*
X161323Y101423D01*
X164137Y98609D02*
X167888Y98141D01*
X164137Y98609D02*
X164606Y94858D01*
X164137Y98609D02*
X165778Y102127D01*
X164137Y98609D02*
X160619Y96968D01*
X164137Y98609D02*
X161323Y101423D01*
X164137Y98609D02*
X167888Y98141D01*
X164137Y98609D02*
X164606Y94858D01*
X164137Y98609D02*
X165778Y102127D01*
X164137Y98609D02*
X160619Y96968D01*
D16*
X213910Y82837D02*
X223509Y73238D01*
X223611Y73139D01*
X223716Y73042D01*
X223824Y72948D01*
X223934Y72858D01*
X224046Y72770D01*
X224161Y72685D01*
X224278Y72604D01*
X224397Y72526D01*
X224519Y72451D01*
X224642Y72379D01*
X224767Y72311D01*
X224894Y72246D01*
X225023Y72185D01*
X225154Y72127D01*
X225286Y72073D01*
X225419Y72023D01*
X225554Y71976D01*
X225690Y71933D01*
X225827Y71893D01*
X225965Y71857D01*
X226104Y71826D01*
X226244Y71798D01*
X226384Y71773D01*
X226525Y71753D01*
X226667Y71736D01*
X226809Y71724D01*
X226952Y71715D01*
X227094Y71710D01*
X227237Y71709D01*
X227379Y71712D01*
X227522Y71719D01*
X227664Y71730D01*
X227806Y71744D01*
X227947Y71763D01*
X228088Y71785D01*
X228228Y71811D01*
X228368Y71841D01*
X228506Y71875D01*
X228644Y71912D01*
X228780Y71954D01*
X228916Y71999D01*
X229050Y72047D01*
X229183Y72100D01*
X229314Y72156D01*
X229443Y72215D01*
X229571Y72278D01*
X229697Y72345D01*
X229822Y72414D01*
X229944Y72488D01*
X230064Y72564D01*
X230183Y72644D01*
X230299Y72727D01*
X230412Y72813D01*
X230524Y72903D01*
X230632Y72995D01*
X230738Y73090D01*
X230842Y73188D01*
X230943Y73289D01*
X231041Y73393D01*
X231136Y73499D01*
X231228Y73608D01*
X231318Y73719D01*
X231404Y73832D01*
X231487Y73948D01*
X231567Y74067D01*
X231643Y74187D01*
X231717Y74309D01*
X231786Y74434D01*
X231853Y74560D01*
X231916Y74688D01*
X231975Y74817D01*
X232031Y74949D01*
X232084Y75081D01*
X232132Y75215D01*
X232177Y75351D01*
X232219Y75487D01*
X232256Y75625D01*
X232290Y75763D01*
X232320Y75903D01*
X232346Y76043D01*
X232368Y76184D01*
X232387Y76325D01*
X232401Y76467D01*
X232412Y76609D01*
X232419Y76752D01*
X232422Y76894D01*
X232421Y77037D01*
X232416Y77180D01*
X232407Y77322D01*
X232395Y77464D01*
X232378Y77606D01*
X232358Y77747D01*
X232333Y77887D01*
X232305Y78027D01*
X232274Y78166D01*
X232238Y78304D01*
X232198Y78441D01*
X232155Y78577D01*
X232108Y78712D01*
X232058Y78845D01*
X232004Y78977D01*
X231946Y79108D01*
X231885Y79237D01*
X231820Y79364D01*
X231752Y79489D01*
X231680Y79612D01*
X231605Y79734D01*
X231527Y79853D01*
X231446Y79970D01*
X231361Y80085D01*
X231273Y80197D01*
X231183Y80307D01*
X231089Y80415D01*
X230992Y80520D01*
X230893Y80622D01*
X221294Y90221D01*
X229895Y92915D02*
X230634Y99560D01*
X243925Y86269D01*
X240233Y82578D02*
X247616Y89961D01*
D17*
X312100Y77100D02*
X324100Y77100D01*
X334100Y83600D02*
X334100Y93600D01*
X302100Y93600D02*
X302100Y83600D01*
X312100Y102100D02*
X324100Y101600D01*
D18*
X304100Y72600D03*
D17*
X304102Y72556D01*
X304108Y72513D01*
X304117Y72471D01*
X304130Y72429D01*
X304147Y72389D01*
X304167Y72350D01*
X304190Y72313D01*
X304217Y72279D01*
X304246Y72246D01*
X304279Y72217D01*
X304313Y72190D01*
X304350Y72167D01*
X304389Y72147D01*
X304429Y72130D01*
X304471Y72117D01*
X304513Y72108D01*
X304556Y72102D01*
X304600Y72100D01*
X304644Y72102D01*
X304687Y72108D01*
X304729Y72117D01*
X304771Y72130D01*
X304811Y72147D01*
X304850Y72167D01*
X304887Y72190D01*
X304921Y72217D01*
X304954Y72246D01*
X304983Y72279D01*
X305010Y72313D01*
X305033Y72350D01*
X305053Y72389D01*
X305070Y72429D01*
X305083Y72471D01*
X305092Y72513D01*
X305098Y72556D01*
X305100Y72600D01*
D18*
X305100Y72600D03*
D17*
X305098Y72644D01*
X305092Y72687D01*
X305083Y72729D01*
X305070Y72771D01*
X305053Y72811D01*
X305033Y72850D01*
X305010Y72887D01*
X304983Y72921D01*
X304954Y72954D01*
X304921Y72983D01*
X304887Y73010D01*
X304850Y73033D01*
X304811Y73053D01*
X304771Y73070D01*
X304729Y73083D01*
X304687Y73092D01*
X304644Y73098D01*
X304600Y73100D01*
X304556Y73098D01*
X304513Y73092D01*
X304471Y73083D01*
X304429Y73070D01*
X304389Y73053D01*
X304350Y73033D01*
X304313Y73010D01*
X304279Y72983D01*
X304246Y72954D01*
X304217Y72921D01*
X304190Y72887D01*
X304167Y72850D01*
X304147Y72811D01*
X304130Y72771D01*
X304117Y72729D01*
X304108Y72687D01*
X304102Y72644D01*
X304100Y72600D01*
D10*
X343815Y95442D02*
X347710Y89925D01*
X351604Y95442D01*
X347710Y89925D02*
X347710Y83758D01*
X355894Y92846D02*
X359140Y95442D01*
X359140Y83758D01*
X362385Y83758D02*
X355894Y83758D01*
M02*
