G04 EAGLE Gerber RS-274X export*
G75*
%MOMM*%
%FSLAX34Y34*%
%LPD*%
%INSoldermask Top*%
%IPPOS*%
%AMOC8*
5,1,8,0,0,1.08239X$1,22.5*%
G01*
%ADD10R,1.803200X2.003200*%
%ADD11C,1.611200*%
%ADD12R,0.803200X0.553200*%
%ADD13R,1.303200X1.903200*%
%ADD14C,1.727200*%
%ADD15R,1.203200X1.303200*%
%ADD16R,0.711200X1.676400*%
%ADD17R,1.203200X1.003200*%
%ADD18C,0.959600*%


D10*
X98600Y90900D03*
X126600Y90900D03*
X98800Y138900D03*
X126800Y138900D03*
D11*
X304800Y148100D03*
X317500Y158100D03*
X330200Y148100D03*
D12*
X101500Y122200D03*
X101500Y115700D03*
X101500Y109200D03*
X122500Y109200D03*
X122500Y115700D03*
X122500Y122200D03*
D13*
X112000Y115700D03*
D14*
X25400Y33020D02*
X25400Y17780D01*
X50800Y17780D02*
X50800Y33020D01*
X76200Y33020D02*
X76200Y17780D01*
X101600Y17780D02*
X101600Y33020D01*
X127000Y33020D02*
X127000Y17780D01*
X152400Y17780D02*
X152400Y33020D01*
X177800Y33020D02*
X177800Y17780D01*
X203200Y17780D02*
X203200Y33020D01*
X228600Y33020D02*
X228600Y17780D01*
X254000Y17780D02*
X254000Y33020D01*
X279400Y33020D02*
X279400Y17780D01*
X304800Y17780D02*
X304800Y33020D01*
X330200Y33020D02*
X330200Y17780D01*
X355600Y17780D02*
X355600Y33020D01*
X381000Y33020D02*
X381000Y17780D01*
X406400Y17780D02*
X406400Y33020D01*
X431800Y33020D02*
X431800Y17780D01*
X25800Y195380D02*
X25800Y210620D01*
X51200Y210620D02*
X51200Y195380D01*
X76600Y195380D02*
X76600Y210620D01*
X102000Y210620D02*
X102000Y195380D01*
X127400Y195380D02*
X127400Y210620D01*
X152800Y210620D02*
X152800Y195380D01*
X178200Y195380D02*
X178200Y210620D01*
X203600Y210620D02*
X203600Y195380D01*
X229000Y195380D02*
X229000Y210620D01*
X254400Y210620D02*
X254400Y195380D01*
X279800Y195380D02*
X279800Y210620D01*
X305200Y210620D02*
X305200Y195380D01*
X330600Y195380D02*
X330600Y210620D01*
X356000Y210620D02*
X356000Y195380D01*
X381400Y195380D02*
X381400Y210620D01*
X406800Y210620D02*
X406800Y195380D01*
X432200Y195380D02*
X432200Y210620D01*
D15*
X104100Y69700D03*
X121100Y69700D03*
D16*
G36*
X176335Y96520D02*
X171306Y101549D01*
X183159Y113402D01*
X188188Y108373D01*
X176335Y96520D01*
G37*
G36*
X181903Y90952D02*
X176874Y95981D01*
X188727Y107834D01*
X193756Y102805D01*
X181903Y90952D01*
G37*
G36*
X187651Y85204D02*
X182622Y90233D01*
X194475Y102086D01*
X199504Y97057D01*
X187651Y85204D01*
G37*
G36*
X193218Y79637D02*
X188189Y84666D01*
X200042Y96519D01*
X205071Y91490D01*
X193218Y79637D01*
G37*
G36*
X198966Y73889D02*
X193937Y78918D01*
X205790Y90771D01*
X210819Y85742D01*
X198966Y73889D01*
G37*
G36*
X204533Y68322D02*
X199504Y73351D01*
X211357Y85204D01*
X216386Y80175D01*
X204533Y68322D01*
G37*
G36*
X210281Y62574D02*
X205252Y67603D01*
X217105Y79456D01*
X222134Y74427D01*
X210281Y62574D01*
G37*
G36*
X215849Y57006D02*
X210820Y62035D01*
X222673Y73888D01*
X227702Y68859D01*
X215849Y57006D01*
G37*
G36*
X229498Y68859D02*
X234527Y73888D01*
X246380Y62035D01*
X241351Y57006D01*
X229498Y68859D01*
G37*
G36*
X235066Y74427D02*
X240095Y79456D01*
X251948Y67603D01*
X246919Y62574D01*
X235066Y74427D01*
G37*
G36*
X240814Y80175D02*
X245843Y85204D01*
X257696Y73351D01*
X252667Y68322D01*
X240814Y80175D01*
G37*
G36*
X246381Y85742D02*
X251410Y90771D01*
X263263Y78918D01*
X258234Y73889D01*
X246381Y85742D01*
G37*
G36*
X252129Y91490D02*
X257158Y96519D01*
X269011Y84666D01*
X263982Y79637D01*
X252129Y91490D01*
G37*
G36*
X257696Y97057D02*
X262725Y102086D01*
X274578Y90233D01*
X269549Y85204D01*
X257696Y97057D01*
G37*
G36*
X263444Y102805D02*
X268473Y107834D01*
X280326Y95981D01*
X275297Y90952D01*
X263444Y102805D01*
G37*
G36*
X269012Y108373D02*
X274041Y113402D01*
X285894Y101549D01*
X280865Y96520D01*
X269012Y108373D01*
G37*
G36*
X274041Y115198D02*
X269012Y120227D01*
X280865Y132080D01*
X285894Y127051D01*
X274041Y115198D01*
G37*
G36*
X268473Y120766D02*
X263444Y125795D01*
X275297Y137648D01*
X280326Y132619D01*
X268473Y120766D01*
G37*
G36*
X262725Y126514D02*
X257696Y131543D01*
X269549Y143396D01*
X274578Y138367D01*
X262725Y126514D01*
G37*
G36*
X257158Y132081D02*
X252129Y137110D01*
X263982Y148963D01*
X269011Y143934D01*
X257158Y132081D01*
G37*
G36*
X251410Y137829D02*
X246381Y142858D01*
X258234Y154711D01*
X263263Y149682D01*
X251410Y137829D01*
G37*
G36*
X245843Y143396D02*
X240814Y148425D01*
X252667Y160278D01*
X257696Y155249D01*
X245843Y143396D01*
G37*
G36*
X240095Y149144D02*
X235066Y154173D01*
X246919Y166026D01*
X251948Y160997D01*
X240095Y149144D01*
G37*
G36*
X234527Y154712D02*
X229498Y159741D01*
X241351Y171594D01*
X246380Y166565D01*
X234527Y154712D01*
G37*
G36*
X210820Y166565D02*
X215849Y171594D01*
X227702Y159741D01*
X222673Y154712D01*
X210820Y166565D01*
G37*
G36*
X205252Y160997D02*
X210281Y166026D01*
X222134Y154173D01*
X217105Y149144D01*
X205252Y160997D01*
G37*
G36*
X199504Y155249D02*
X204533Y160278D01*
X216386Y148425D01*
X211357Y143396D01*
X199504Y155249D01*
G37*
G36*
X193937Y149682D02*
X198966Y154711D01*
X210819Y142858D01*
X205790Y137829D01*
X193937Y149682D01*
G37*
G36*
X188189Y143934D02*
X193218Y148963D01*
X205071Y137110D01*
X200042Y132081D01*
X188189Y143934D01*
G37*
G36*
X182622Y138367D02*
X187651Y143396D01*
X199504Y131543D01*
X194475Y126514D01*
X182622Y138367D01*
G37*
G36*
X176874Y132619D02*
X181903Y137648D01*
X193756Y125795D01*
X188727Y120766D01*
X176874Y132619D01*
G37*
G36*
X171306Y127051D02*
X176335Y132080D01*
X188188Y120227D01*
X183159Y115198D01*
X171306Y127051D01*
G37*
D17*
X305100Y79100D03*
X331100Y79100D03*
X331100Y100100D03*
X305100Y100100D03*
D18*
X132588Y76200D03*
X268224Y158496D03*
X86868Y77724D03*
X321564Y89916D03*
X280416Y114300D03*
X76200Y100584D03*
X208788Y121920D03*
X249936Y131064D03*
X254508Y164592D03*
X228600Y124968D03*
X259080Y120396D03*
X83820Y106680D03*
X262128Y108204D03*
X342900Y146304D03*
X342900Y181356D03*
X228600Y144780D03*
X278892Y146304D03*
X204216Y167640D03*
X262128Y170688D03*
X213360Y138684D03*
X289560Y163068D03*
X222504Y137160D03*
X304800Y161544D03*
X222504Y173736D03*
X245364Y173736D03*
X272796Y178308D03*
X202692Y179832D03*
X222504Y94488D03*
X278892Y50292D03*
M02*
