G04 EAGLE Gerber RS-274X export*
G75*
%MOMM*%
%FSLAX34Y34*%
%LPD*%
%INSoldermask Bottom*%
%IPPOS*%
%AMOC8*
5,1,8,0,0,1.08239X$1,22.5*%
G01*
%ADD10C,1.611200*%
%ADD11C,1.727200*%
%ADD12C,0.959600*%


D10*
X304800Y148100D03*
X317500Y158100D03*
X330200Y148100D03*
D11*
X25400Y33020D02*
X25400Y17780D01*
X50800Y17780D02*
X50800Y33020D01*
X76200Y33020D02*
X76200Y17780D01*
X101600Y17780D02*
X101600Y33020D01*
X127000Y33020D02*
X127000Y17780D01*
X152400Y17780D02*
X152400Y33020D01*
X177800Y33020D02*
X177800Y17780D01*
X203200Y17780D02*
X203200Y33020D01*
X228600Y33020D02*
X228600Y17780D01*
X254000Y17780D02*
X254000Y33020D01*
X279400Y33020D02*
X279400Y17780D01*
X304800Y17780D02*
X304800Y33020D01*
X330200Y33020D02*
X330200Y17780D01*
X355600Y17780D02*
X355600Y33020D01*
X381000Y33020D02*
X381000Y17780D01*
X406400Y17780D02*
X406400Y33020D01*
X431800Y33020D02*
X431800Y17780D01*
X25800Y195380D02*
X25800Y210620D01*
X51200Y210620D02*
X51200Y195380D01*
X76600Y195380D02*
X76600Y210620D01*
X102000Y210620D02*
X102000Y195380D01*
X127400Y195380D02*
X127400Y210620D01*
X152800Y210620D02*
X152800Y195380D01*
X178200Y195380D02*
X178200Y210620D01*
X203600Y210620D02*
X203600Y195380D01*
X229000Y195380D02*
X229000Y210620D01*
X254400Y210620D02*
X254400Y195380D01*
X279800Y195380D02*
X279800Y210620D01*
X305200Y210620D02*
X305200Y195380D01*
X330600Y195380D02*
X330600Y210620D01*
X356000Y210620D02*
X356000Y195380D01*
X381400Y195380D02*
X381400Y210620D01*
X406800Y210620D02*
X406800Y195380D01*
X432200Y195380D02*
X432200Y210620D01*
D12*
X132588Y76200D03*
X268224Y158496D03*
X86868Y77724D03*
X321564Y89916D03*
X280416Y114300D03*
X76200Y100584D03*
X208788Y121920D03*
X249936Y131064D03*
X254508Y164592D03*
X228600Y124968D03*
X259080Y120396D03*
X83820Y106680D03*
X262128Y108204D03*
X342900Y146304D03*
X342900Y181356D03*
X228600Y144780D03*
X278892Y146304D03*
X204216Y167640D03*
X262128Y170688D03*
X213360Y138684D03*
X289560Y163068D03*
X222504Y137160D03*
X304800Y161544D03*
X222504Y173736D03*
X245364Y173736D03*
X272796Y178308D03*
X202692Y179832D03*
X222504Y94488D03*
X278892Y50292D03*
M02*
