G04 EAGLE Gerber RS-274X export*
G75*
%MOMM*%
%FSLAX34Y34*%
%LPD*%
%INSilkscreen Top*%
%IPPOS*%
%AMOC8*
5,1,8,0,0,1.08239X$1,22.5*%
G01*
%ADD10C,0.101600*%
%ADD11C,0.200000*%
%ADD12C,0.250000*%
%ADD13C,0.152400*%
%ADD14C,0.127000*%
%ADD15C,0.076200*%
%ADD16C,0.203200*%
%ADD17C,0.100000*%
%ADD18C,0.100000*%


D10*
X80601Y72108D02*
X78004Y72108D01*
X77905Y72110D01*
X77805Y72116D01*
X77706Y72125D01*
X77608Y72138D01*
X77510Y72155D01*
X77412Y72176D01*
X77316Y72201D01*
X77221Y72229D01*
X77127Y72261D01*
X77034Y72296D01*
X76942Y72335D01*
X76852Y72378D01*
X76764Y72423D01*
X76677Y72473D01*
X76593Y72525D01*
X76510Y72581D01*
X76430Y72639D01*
X76352Y72701D01*
X76277Y72766D01*
X76204Y72834D01*
X76134Y72904D01*
X76066Y72977D01*
X76001Y73052D01*
X75939Y73130D01*
X75881Y73210D01*
X75825Y73293D01*
X75773Y73377D01*
X75723Y73464D01*
X75678Y73552D01*
X75635Y73642D01*
X75596Y73734D01*
X75561Y73827D01*
X75529Y73921D01*
X75501Y74016D01*
X75476Y74112D01*
X75455Y74210D01*
X75438Y74308D01*
X75425Y74406D01*
X75416Y74505D01*
X75410Y74605D01*
X75408Y74704D01*
X75408Y81196D01*
X75410Y81295D01*
X75416Y81395D01*
X75425Y81494D01*
X75438Y81592D01*
X75455Y81690D01*
X75476Y81788D01*
X75501Y81884D01*
X75529Y81979D01*
X75561Y82073D01*
X75596Y82166D01*
X75635Y82258D01*
X75678Y82348D01*
X75723Y82436D01*
X75773Y82523D01*
X75825Y82607D01*
X75881Y82690D01*
X75939Y82770D01*
X76001Y82848D01*
X76066Y82923D01*
X76134Y82996D01*
X76204Y83066D01*
X76277Y83134D01*
X76352Y83199D01*
X76430Y83261D01*
X76510Y83319D01*
X76593Y83375D01*
X76677Y83427D01*
X76764Y83477D01*
X76852Y83522D01*
X76942Y83565D01*
X77034Y83604D01*
X77126Y83639D01*
X77221Y83671D01*
X77316Y83699D01*
X77412Y83724D01*
X77510Y83745D01*
X77608Y83762D01*
X77706Y83775D01*
X77805Y83784D01*
X77905Y83790D01*
X78004Y83792D01*
X80601Y83792D01*
X84966Y81196D02*
X88212Y83792D01*
X88212Y72108D01*
X91457Y72108D02*
X84966Y72108D01*
X79801Y120108D02*
X77204Y120108D01*
X77105Y120110D01*
X77005Y120116D01*
X76906Y120125D01*
X76808Y120138D01*
X76710Y120155D01*
X76612Y120176D01*
X76516Y120201D01*
X76421Y120229D01*
X76327Y120261D01*
X76234Y120296D01*
X76142Y120335D01*
X76052Y120378D01*
X75964Y120423D01*
X75877Y120473D01*
X75793Y120525D01*
X75710Y120581D01*
X75630Y120639D01*
X75552Y120701D01*
X75477Y120766D01*
X75404Y120834D01*
X75334Y120904D01*
X75266Y120977D01*
X75201Y121052D01*
X75139Y121130D01*
X75081Y121210D01*
X75025Y121293D01*
X74973Y121377D01*
X74923Y121464D01*
X74878Y121552D01*
X74835Y121642D01*
X74796Y121734D01*
X74761Y121827D01*
X74729Y121921D01*
X74701Y122016D01*
X74676Y122112D01*
X74655Y122210D01*
X74638Y122308D01*
X74625Y122406D01*
X74616Y122505D01*
X74610Y122605D01*
X74608Y122704D01*
X74608Y129196D01*
X74610Y129295D01*
X74616Y129395D01*
X74625Y129494D01*
X74638Y129592D01*
X74655Y129690D01*
X74676Y129788D01*
X74701Y129884D01*
X74729Y129979D01*
X74761Y130073D01*
X74796Y130166D01*
X74835Y130258D01*
X74878Y130348D01*
X74923Y130436D01*
X74973Y130523D01*
X75025Y130607D01*
X75081Y130690D01*
X75139Y130770D01*
X75201Y130848D01*
X75266Y130923D01*
X75334Y130996D01*
X75404Y131066D01*
X75477Y131134D01*
X75552Y131199D01*
X75630Y131261D01*
X75710Y131319D01*
X75793Y131375D01*
X75877Y131427D01*
X75964Y131477D01*
X76052Y131522D01*
X76142Y131565D01*
X76234Y131604D01*
X76326Y131639D01*
X76421Y131671D01*
X76516Y131699D01*
X76612Y131724D01*
X76710Y131745D01*
X76808Y131762D01*
X76906Y131775D01*
X77005Y131784D01*
X77105Y131790D01*
X77204Y131792D01*
X79801Y131792D01*
X87736Y131792D02*
X87843Y131790D01*
X87949Y131784D01*
X88055Y131774D01*
X88161Y131761D01*
X88267Y131743D01*
X88371Y131722D01*
X88475Y131697D01*
X88578Y131668D01*
X88679Y131636D01*
X88779Y131599D01*
X88878Y131559D01*
X88976Y131516D01*
X89072Y131469D01*
X89166Y131418D01*
X89258Y131364D01*
X89348Y131307D01*
X89436Y131247D01*
X89521Y131183D01*
X89604Y131116D01*
X89685Y131046D01*
X89763Y130974D01*
X89839Y130898D01*
X89911Y130820D01*
X89981Y130739D01*
X90048Y130656D01*
X90112Y130571D01*
X90172Y130483D01*
X90229Y130393D01*
X90283Y130301D01*
X90334Y130207D01*
X90381Y130111D01*
X90424Y130013D01*
X90464Y129914D01*
X90501Y129814D01*
X90533Y129713D01*
X90562Y129610D01*
X90587Y129506D01*
X90608Y129402D01*
X90626Y129296D01*
X90639Y129190D01*
X90649Y129084D01*
X90655Y128978D01*
X90657Y128871D01*
X87736Y131792D02*
X87615Y131790D01*
X87494Y131784D01*
X87374Y131774D01*
X87253Y131761D01*
X87134Y131743D01*
X87014Y131722D01*
X86896Y131697D01*
X86779Y131668D01*
X86662Y131635D01*
X86547Y131599D01*
X86433Y131558D01*
X86320Y131515D01*
X86208Y131467D01*
X86099Y131416D01*
X85991Y131361D01*
X85884Y131303D01*
X85780Y131242D01*
X85678Y131177D01*
X85578Y131109D01*
X85480Y131038D01*
X85384Y130964D01*
X85291Y130887D01*
X85201Y130806D01*
X85113Y130723D01*
X85028Y130637D01*
X84945Y130548D01*
X84866Y130457D01*
X84789Y130363D01*
X84716Y130267D01*
X84646Y130169D01*
X84579Y130068D01*
X84515Y129965D01*
X84455Y129860D01*
X84398Y129753D01*
X84344Y129645D01*
X84294Y129535D01*
X84248Y129423D01*
X84205Y129310D01*
X84166Y129195D01*
X89684Y126599D02*
X89763Y126676D01*
X89839Y126757D01*
X89912Y126840D01*
X89982Y126925D01*
X90049Y127013D01*
X90113Y127103D01*
X90173Y127195D01*
X90230Y127290D01*
X90284Y127386D01*
X90335Y127484D01*
X90382Y127584D01*
X90426Y127686D01*
X90466Y127789D01*
X90502Y127893D01*
X90534Y127999D01*
X90563Y128105D01*
X90588Y128213D01*
X90610Y128321D01*
X90627Y128431D01*
X90641Y128540D01*
X90650Y128650D01*
X90656Y128761D01*
X90658Y128871D01*
X89684Y126599D02*
X84166Y120108D01*
X90657Y120108D01*
D11*
X367700Y114200D02*
X373700Y114200D01*
X373700Y85200D01*
X367700Y85200D01*
X367700Y114200D01*
X364200Y114700D02*
X352200Y114700D01*
D10*
X398492Y105542D02*
X398492Y93858D01*
X397194Y93858D02*
X399790Y93858D01*
X399790Y105542D02*
X397194Y105542D01*
X406954Y93858D02*
X409550Y93858D01*
X406954Y93858D02*
X406855Y93860D01*
X406755Y93866D01*
X406656Y93875D01*
X406558Y93888D01*
X406460Y93905D01*
X406362Y93926D01*
X406266Y93951D01*
X406171Y93979D01*
X406077Y94011D01*
X405984Y94046D01*
X405892Y94085D01*
X405802Y94128D01*
X405714Y94173D01*
X405627Y94223D01*
X405543Y94275D01*
X405460Y94331D01*
X405380Y94389D01*
X405302Y94451D01*
X405227Y94516D01*
X405154Y94584D01*
X405084Y94654D01*
X405016Y94727D01*
X404951Y94802D01*
X404889Y94880D01*
X404831Y94960D01*
X404775Y95043D01*
X404723Y95127D01*
X404673Y95214D01*
X404628Y95302D01*
X404585Y95392D01*
X404546Y95484D01*
X404511Y95577D01*
X404479Y95671D01*
X404451Y95766D01*
X404426Y95862D01*
X404405Y95960D01*
X404388Y96058D01*
X404375Y96156D01*
X404366Y96255D01*
X404360Y96355D01*
X404358Y96454D01*
X404357Y96454D02*
X404357Y102946D01*
X404358Y102946D02*
X404360Y103045D01*
X404366Y103145D01*
X404375Y103244D01*
X404388Y103342D01*
X404405Y103440D01*
X404426Y103538D01*
X404451Y103634D01*
X404479Y103729D01*
X404511Y103823D01*
X404546Y103916D01*
X404585Y104008D01*
X404628Y104098D01*
X404673Y104186D01*
X404723Y104273D01*
X404775Y104357D01*
X404831Y104440D01*
X404889Y104520D01*
X404951Y104598D01*
X405016Y104673D01*
X405084Y104746D01*
X405154Y104816D01*
X405227Y104884D01*
X405302Y104949D01*
X405380Y105011D01*
X405460Y105069D01*
X405543Y105125D01*
X405627Y105177D01*
X405714Y105227D01*
X405802Y105272D01*
X405892Y105315D01*
X405984Y105354D01*
X406076Y105389D01*
X406171Y105421D01*
X406266Y105449D01*
X406362Y105474D01*
X406460Y105495D01*
X406558Y105512D01*
X406656Y105525D01*
X406755Y105534D01*
X406855Y105540D01*
X406954Y105542D01*
X409550Y105542D01*
X413915Y102946D02*
X417161Y105542D01*
X417161Y93858D01*
X420406Y93858D02*
X413915Y93858D01*
D12*
X108150Y113650D02*
X108152Y113720D01*
X108158Y113790D01*
X108168Y113859D01*
X108181Y113928D01*
X108199Y113996D01*
X108220Y114063D01*
X108245Y114128D01*
X108274Y114192D01*
X108306Y114255D01*
X108342Y114315D01*
X108381Y114373D01*
X108423Y114429D01*
X108468Y114483D01*
X108516Y114534D01*
X108567Y114582D01*
X108621Y114627D01*
X108677Y114669D01*
X108735Y114708D01*
X108795Y114744D01*
X108858Y114776D01*
X108922Y114805D01*
X108987Y114830D01*
X109054Y114851D01*
X109122Y114869D01*
X109191Y114882D01*
X109260Y114892D01*
X109330Y114898D01*
X109400Y114900D01*
X109470Y114898D01*
X109540Y114892D01*
X109609Y114882D01*
X109678Y114869D01*
X109746Y114851D01*
X109813Y114830D01*
X109878Y114805D01*
X109942Y114776D01*
X110005Y114744D01*
X110065Y114708D01*
X110123Y114669D01*
X110179Y114627D01*
X110233Y114582D01*
X110284Y114534D01*
X110332Y114483D01*
X110377Y114429D01*
X110419Y114373D01*
X110458Y114315D01*
X110494Y114255D01*
X110526Y114192D01*
X110555Y114128D01*
X110580Y114063D01*
X110601Y113996D01*
X110619Y113928D01*
X110632Y113859D01*
X110642Y113790D01*
X110648Y113720D01*
X110650Y113650D01*
X110648Y113580D01*
X110642Y113510D01*
X110632Y113441D01*
X110619Y113372D01*
X110601Y113304D01*
X110580Y113237D01*
X110555Y113172D01*
X110526Y113108D01*
X110494Y113045D01*
X110458Y112985D01*
X110419Y112927D01*
X110377Y112871D01*
X110332Y112817D01*
X110284Y112766D01*
X110233Y112718D01*
X110179Y112673D01*
X110123Y112631D01*
X110065Y112592D01*
X110005Y112556D01*
X109942Y112524D01*
X109878Y112495D01*
X109813Y112470D01*
X109746Y112449D01*
X109678Y112431D01*
X109609Y112418D01*
X109540Y112408D01*
X109470Y112402D01*
X109400Y112400D01*
X109330Y112402D01*
X109260Y112408D01*
X109191Y112418D01*
X109122Y112431D01*
X109054Y112449D01*
X108987Y112470D01*
X108922Y112495D01*
X108858Y112524D01*
X108795Y112556D01*
X108735Y112592D01*
X108677Y112631D01*
X108621Y112673D01*
X108567Y112718D01*
X108516Y112766D01*
X108468Y112817D01*
X108423Y112871D01*
X108381Y112927D01*
X108342Y112985D01*
X108306Y113045D01*
X108274Y113108D01*
X108245Y113172D01*
X108220Y113237D01*
X108199Y113304D01*
X108181Y113372D01*
X108168Y113441D01*
X108158Y113510D01*
X108152Y113580D01*
X108150Y113650D01*
D10*
X79692Y106242D02*
X79692Y94558D01*
X78394Y94558D02*
X80990Y94558D01*
X80990Y106242D02*
X78394Y106242D01*
X88154Y94558D02*
X90750Y94558D01*
X88154Y94558D02*
X88055Y94560D01*
X87955Y94566D01*
X87856Y94575D01*
X87758Y94588D01*
X87660Y94605D01*
X87562Y94626D01*
X87466Y94651D01*
X87371Y94679D01*
X87277Y94711D01*
X87184Y94746D01*
X87092Y94785D01*
X87002Y94828D01*
X86914Y94873D01*
X86827Y94923D01*
X86743Y94975D01*
X86660Y95031D01*
X86580Y95089D01*
X86502Y95151D01*
X86427Y95216D01*
X86354Y95284D01*
X86284Y95354D01*
X86216Y95427D01*
X86151Y95502D01*
X86089Y95580D01*
X86031Y95660D01*
X85975Y95743D01*
X85923Y95827D01*
X85873Y95914D01*
X85828Y96002D01*
X85785Y96092D01*
X85746Y96184D01*
X85711Y96277D01*
X85679Y96371D01*
X85651Y96466D01*
X85626Y96562D01*
X85605Y96660D01*
X85588Y96758D01*
X85575Y96856D01*
X85566Y96955D01*
X85560Y97055D01*
X85558Y97154D01*
X85557Y97154D02*
X85557Y103646D01*
X85558Y103646D02*
X85560Y103745D01*
X85566Y103845D01*
X85575Y103944D01*
X85588Y104042D01*
X85605Y104140D01*
X85626Y104238D01*
X85651Y104334D01*
X85679Y104429D01*
X85711Y104523D01*
X85746Y104616D01*
X85785Y104708D01*
X85828Y104798D01*
X85873Y104886D01*
X85923Y104973D01*
X85975Y105057D01*
X86031Y105140D01*
X86089Y105220D01*
X86151Y105298D01*
X86216Y105373D01*
X86284Y105446D01*
X86354Y105516D01*
X86427Y105584D01*
X86502Y105649D01*
X86580Y105711D01*
X86660Y105769D01*
X86743Y105825D01*
X86827Y105877D01*
X86914Y105927D01*
X87002Y105972D01*
X87092Y106015D01*
X87184Y106054D01*
X87276Y106089D01*
X87371Y106121D01*
X87466Y106149D01*
X87562Y106174D01*
X87660Y106195D01*
X87758Y106212D01*
X87856Y106225D01*
X87955Y106234D01*
X88055Y106240D01*
X88154Y106242D01*
X90750Y106242D01*
X95115Y94558D02*
X98361Y94558D01*
X98474Y94560D01*
X98587Y94566D01*
X98700Y94576D01*
X98813Y94590D01*
X98925Y94607D01*
X99036Y94629D01*
X99146Y94654D01*
X99256Y94684D01*
X99364Y94717D01*
X99471Y94754D01*
X99577Y94794D01*
X99681Y94839D01*
X99784Y94887D01*
X99885Y94938D01*
X99984Y94993D01*
X100081Y95051D01*
X100176Y95113D01*
X100269Y95178D01*
X100359Y95246D01*
X100447Y95317D01*
X100533Y95392D01*
X100616Y95469D01*
X100696Y95549D01*
X100773Y95632D01*
X100848Y95718D01*
X100919Y95806D01*
X100987Y95896D01*
X101052Y95989D01*
X101114Y96084D01*
X101172Y96181D01*
X101227Y96280D01*
X101278Y96381D01*
X101326Y96484D01*
X101371Y96588D01*
X101411Y96694D01*
X101448Y96801D01*
X101481Y96909D01*
X101511Y97019D01*
X101536Y97129D01*
X101558Y97240D01*
X101575Y97352D01*
X101589Y97465D01*
X101599Y97578D01*
X101605Y97691D01*
X101607Y97804D01*
X101605Y97917D01*
X101599Y98030D01*
X101589Y98143D01*
X101575Y98256D01*
X101558Y98368D01*
X101536Y98479D01*
X101511Y98589D01*
X101481Y98699D01*
X101448Y98807D01*
X101411Y98914D01*
X101371Y99020D01*
X101326Y99124D01*
X101278Y99227D01*
X101227Y99328D01*
X101172Y99427D01*
X101114Y99524D01*
X101052Y99619D01*
X100987Y99712D01*
X100919Y99802D01*
X100848Y99890D01*
X100773Y99976D01*
X100696Y100059D01*
X100616Y100139D01*
X100533Y100216D01*
X100447Y100291D01*
X100359Y100362D01*
X100269Y100430D01*
X100176Y100495D01*
X100081Y100557D01*
X99984Y100615D01*
X99885Y100670D01*
X99784Y100721D01*
X99681Y100769D01*
X99577Y100814D01*
X99471Y100854D01*
X99364Y100891D01*
X99256Y100924D01*
X99146Y100954D01*
X99036Y100979D01*
X98925Y101001D01*
X98813Y101018D01*
X98700Y101032D01*
X98587Y101042D01*
X98474Y101048D01*
X98361Y101050D01*
X99010Y106242D02*
X95115Y106242D01*
X99010Y106242D02*
X99111Y106240D01*
X99211Y106234D01*
X99311Y106224D01*
X99411Y106211D01*
X99510Y106193D01*
X99609Y106172D01*
X99706Y106147D01*
X99803Y106118D01*
X99898Y106085D01*
X99992Y106049D01*
X100084Y106009D01*
X100175Y105966D01*
X100264Y105919D01*
X100351Y105869D01*
X100437Y105815D01*
X100520Y105758D01*
X100600Y105698D01*
X100679Y105635D01*
X100755Y105568D01*
X100828Y105499D01*
X100898Y105427D01*
X100966Y105353D01*
X101031Y105276D01*
X101092Y105196D01*
X101151Y105114D01*
X101206Y105030D01*
X101258Y104944D01*
X101307Y104856D01*
X101352Y104766D01*
X101394Y104674D01*
X101432Y104581D01*
X101466Y104486D01*
X101497Y104391D01*
X101524Y104294D01*
X101547Y104196D01*
X101567Y104097D01*
X101582Y103997D01*
X101594Y103897D01*
X101602Y103797D01*
X101606Y103696D01*
X101606Y103596D01*
X101602Y103495D01*
X101594Y103395D01*
X101582Y103295D01*
X101567Y103195D01*
X101547Y103096D01*
X101524Y102998D01*
X101497Y102901D01*
X101466Y102806D01*
X101432Y102711D01*
X101394Y102618D01*
X101352Y102526D01*
X101307Y102436D01*
X101258Y102348D01*
X101206Y102262D01*
X101151Y102178D01*
X101092Y102096D01*
X101031Y102016D01*
X100966Y101939D01*
X100898Y101865D01*
X100828Y101793D01*
X100755Y101724D01*
X100679Y101657D01*
X100600Y101594D01*
X100520Y101534D01*
X100437Y101477D01*
X100351Y101423D01*
X100264Y101373D01*
X100175Y101326D01*
X100084Y101283D01*
X99992Y101243D01*
X99898Y101207D01*
X99803Y101174D01*
X99706Y101145D01*
X99609Y101120D01*
X99510Y101099D01*
X99411Y101081D01*
X99311Y101068D01*
X99211Y101058D01*
X99111Y101052D01*
X99010Y101050D01*
X99010Y101049D02*
X96414Y101049D01*
D13*
X398050Y35100D02*
X410750Y35100D01*
X417100Y28750D01*
X417100Y16050D01*
X410750Y9700D01*
X372650Y35100D02*
X366300Y28750D01*
X372650Y35100D02*
X385350Y35100D01*
X391700Y28750D01*
X391700Y16050D01*
X385350Y9700D01*
X372650Y9700D01*
X366300Y16050D01*
X391700Y28750D02*
X398050Y35100D01*
X391700Y16050D02*
X398050Y9700D01*
X410750Y9700D01*
X334550Y35100D02*
X321850Y35100D01*
X334550Y35100D02*
X340900Y28750D01*
X340900Y16050D01*
X334550Y9700D01*
X340900Y28750D02*
X347250Y35100D01*
X359950Y35100D01*
X366300Y28750D01*
X366300Y16050D01*
X359950Y9700D01*
X347250Y9700D01*
X340900Y16050D01*
X296450Y35100D02*
X290100Y28750D01*
X296450Y35100D02*
X309150Y35100D01*
X315500Y28750D01*
X315500Y16050D01*
X309150Y9700D01*
X296450Y9700D01*
X290100Y16050D01*
X315500Y28750D02*
X321850Y35100D01*
X315500Y16050D02*
X321850Y9700D01*
X334550Y9700D01*
X258350Y35100D02*
X245650Y35100D01*
X258350Y35100D02*
X264700Y28750D01*
X264700Y16050D01*
X258350Y9700D01*
X264700Y28750D02*
X271050Y35100D01*
X283750Y35100D01*
X290100Y28750D01*
X290100Y16050D01*
X283750Y9700D01*
X271050Y9700D01*
X264700Y16050D01*
X220250Y35100D02*
X213900Y28750D01*
X220250Y35100D02*
X232950Y35100D01*
X239300Y28750D01*
X239300Y16050D01*
X232950Y9700D01*
X220250Y9700D01*
X213900Y16050D01*
X239300Y28750D02*
X245650Y35100D01*
X239300Y16050D02*
X245650Y9700D01*
X258350Y9700D01*
X182150Y35100D02*
X169450Y35100D01*
X182150Y35100D02*
X188500Y28750D01*
X188500Y16050D01*
X182150Y9700D01*
X188500Y28750D02*
X194850Y35100D01*
X207550Y35100D01*
X213900Y28750D01*
X213900Y16050D01*
X207550Y9700D01*
X194850Y9700D01*
X188500Y16050D01*
X144050Y35100D02*
X137700Y28750D01*
X144050Y35100D02*
X156750Y35100D01*
X163100Y28750D01*
X163100Y16050D01*
X156750Y9700D01*
X144050Y9700D01*
X137700Y16050D01*
X163100Y28750D02*
X169450Y35100D01*
X163100Y16050D02*
X169450Y9700D01*
X182150Y9700D01*
X105950Y35100D02*
X93250Y35100D01*
X105950Y35100D02*
X112300Y28750D01*
X112300Y16050D01*
X105950Y9700D01*
X112300Y28750D02*
X118650Y35100D01*
X131350Y35100D01*
X137700Y28750D01*
X137700Y16050D01*
X131350Y9700D01*
X118650Y9700D01*
X112300Y16050D01*
X67850Y35100D02*
X61500Y28750D01*
X67850Y35100D02*
X80550Y35100D01*
X86900Y28750D01*
X86900Y16050D01*
X80550Y9700D01*
X67850Y9700D01*
X61500Y16050D01*
X86900Y28750D02*
X93250Y35100D01*
X86900Y16050D02*
X93250Y9700D01*
X105950Y9700D01*
X29750Y35100D02*
X17050Y35100D01*
X29750Y35100D02*
X36100Y28750D01*
X36100Y16050D01*
X29750Y9700D01*
X36100Y28750D02*
X42450Y35100D01*
X55150Y35100D01*
X61500Y28750D01*
X61500Y16050D01*
X55150Y9700D01*
X42450Y9700D01*
X36100Y16050D01*
X10700Y16050D02*
X10700Y28750D01*
X17050Y35100D01*
X10700Y16050D02*
X17050Y9700D01*
X29750Y9700D01*
X417100Y28750D02*
X423450Y35100D01*
X436150Y35100D01*
X442500Y28750D01*
X442500Y16050D01*
X436150Y9700D01*
X423450Y9700D01*
X417100Y16050D01*
D14*
X19383Y44863D02*
X19383Y53753D01*
X19383Y44863D02*
X19381Y44763D01*
X19375Y44664D01*
X19365Y44564D01*
X19352Y44466D01*
X19334Y44367D01*
X19313Y44270D01*
X19288Y44174D01*
X19259Y44078D01*
X19226Y43984D01*
X19190Y43891D01*
X19150Y43800D01*
X19106Y43710D01*
X19059Y43622D01*
X19009Y43536D01*
X18955Y43452D01*
X18898Y43370D01*
X18838Y43291D01*
X18774Y43213D01*
X18708Y43139D01*
X18639Y43067D01*
X18567Y42998D01*
X18493Y42932D01*
X18415Y42868D01*
X18336Y42808D01*
X18254Y42751D01*
X18170Y42697D01*
X18084Y42647D01*
X17996Y42600D01*
X17906Y42556D01*
X17815Y42516D01*
X17722Y42480D01*
X17628Y42447D01*
X17532Y42418D01*
X17436Y42393D01*
X17339Y42372D01*
X17240Y42354D01*
X17142Y42341D01*
X17042Y42331D01*
X16943Y42325D01*
X16843Y42323D01*
X15573Y42323D01*
X25363Y42323D02*
X25363Y53753D01*
X28538Y53753D01*
X28649Y53751D01*
X28759Y53745D01*
X28870Y53736D01*
X28980Y53722D01*
X29089Y53705D01*
X29198Y53684D01*
X29306Y53659D01*
X29413Y53630D01*
X29519Y53598D01*
X29624Y53562D01*
X29727Y53522D01*
X29829Y53479D01*
X29930Y53432D01*
X30029Y53381D01*
X30126Y53328D01*
X30220Y53271D01*
X30313Y53210D01*
X30404Y53147D01*
X30493Y53080D01*
X30579Y53010D01*
X30662Y52937D01*
X30744Y52862D01*
X30822Y52784D01*
X30897Y52702D01*
X30970Y52619D01*
X31040Y52533D01*
X31107Y52444D01*
X31170Y52353D01*
X31231Y52260D01*
X31288Y52165D01*
X31341Y52069D01*
X31392Y51970D01*
X31439Y51869D01*
X31482Y51767D01*
X31522Y51664D01*
X31558Y51559D01*
X31590Y51453D01*
X31619Y51346D01*
X31644Y51238D01*
X31665Y51129D01*
X31682Y51020D01*
X31696Y50910D01*
X31705Y50799D01*
X31711Y50689D01*
X31713Y50578D01*
X31711Y50467D01*
X31705Y50357D01*
X31696Y50246D01*
X31682Y50136D01*
X31665Y50027D01*
X31644Y49918D01*
X31619Y49810D01*
X31590Y49703D01*
X31558Y49597D01*
X31522Y49492D01*
X31482Y49389D01*
X31439Y49287D01*
X31392Y49186D01*
X31341Y49087D01*
X31288Y48990D01*
X31231Y48896D01*
X31170Y48803D01*
X31107Y48712D01*
X31040Y48623D01*
X30970Y48537D01*
X30897Y48454D01*
X30822Y48372D01*
X30744Y48294D01*
X30662Y48219D01*
X30579Y48146D01*
X30493Y48076D01*
X30404Y48009D01*
X30313Y47946D01*
X30220Y47885D01*
X30125Y47828D01*
X30029Y47775D01*
X29930Y47724D01*
X29829Y47677D01*
X29727Y47634D01*
X29624Y47594D01*
X29519Y47558D01*
X29413Y47526D01*
X29306Y47497D01*
X29198Y47472D01*
X29089Y47451D01*
X28980Y47434D01*
X28870Y47420D01*
X28759Y47411D01*
X28649Y47405D01*
X28538Y47403D01*
X25363Y47403D01*
X36222Y51213D02*
X39397Y53753D01*
X39397Y42323D01*
X36222Y42323D02*
X42572Y42323D01*
D13*
X42450Y161200D02*
X55150Y161200D01*
X42450Y161200D02*
X36100Y167550D01*
X36100Y180250D01*
X42450Y186600D01*
X80550Y161200D02*
X86900Y167550D01*
X80550Y161200D02*
X67850Y161200D01*
X61500Y167550D01*
X61500Y180250D01*
X67850Y186600D01*
X80550Y186600D01*
X86900Y180250D01*
X61500Y167550D02*
X55150Y161200D01*
X61500Y180250D02*
X55150Y186600D01*
X42450Y186600D01*
X118650Y161200D02*
X131350Y161200D01*
X118650Y161200D02*
X112300Y167550D01*
X112300Y180250D01*
X118650Y186600D01*
X112300Y167550D02*
X105950Y161200D01*
X93250Y161200D01*
X86900Y167550D01*
X86900Y180250D01*
X93250Y186600D01*
X105950Y186600D01*
X112300Y180250D01*
X156750Y161200D02*
X163100Y167550D01*
X156750Y161200D02*
X144050Y161200D01*
X137700Y167550D01*
X137700Y180250D01*
X144050Y186600D01*
X156750Y186600D01*
X163100Y180250D01*
X137700Y167550D02*
X131350Y161200D01*
X137700Y180250D02*
X131350Y186600D01*
X118650Y186600D01*
X194850Y161200D02*
X207550Y161200D01*
X194850Y161200D02*
X188500Y167550D01*
X188500Y180250D01*
X194850Y186600D01*
X188500Y167550D02*
X182150Y161200D01*
X169450Y161200D01*
X163100Y167550D01*
X163100Y180250D01*
X169450Y186600D01*
X182150Y186600D01*
X188500Y180250D01*
X232950Y161200D02*
X239300Y167550D01*
X232950Y161200D02*
X220250Y161200D01*
X213900Y167550D01*
X213900Y180250D01*
X220250Y186600D01*
X232950Y186600D01*
X239300Y180250D01*
X213900Y167550D02*
X207550Y161200D01*
X213900Y180250D02*
X207550Y186600D01*
X194850Y186600D01*
X271050Y161200D02*
X283750Y161200D01*
X271050Y161200D02*
X264700Y167550D01*
X264700Y180250D01*
X271050Y186600D01*
X264700Y167550D02*
X258350Y161200D01*
X245650Y161200D01*
X239300Y167550D01*
X239300Y180250D01*
X245650Y186600D01*
X258350Y186600D01*
X264700Y180250D01*
X309150Y161200D02*
X315500Y167550D01*
X309150Y161200D02*
X296450Y161200D01*
X290100Y167550D01*
X290100Y180250D01*
X296450Y186600D01*
X309150Y186600D01*
X315500Y180250D01*
X290100Y167550D02*
X283750Y161200D01*
X290100Y180250D02*
X283750Y186600D01*
X271050Y186600D01*
X347250Y161200D02*
X359950Y161200D01*
X347250Y161200D02*
X340900Y167550D01*
X340900Y180250D01*
X347250Y186600D01*
X340900Y167550D02*
X334550Y161200D01*
X321850Y161200D01*
X315500Y167550D01*
X315500Y180250D01*
X321850Y186600D01*
X334550Y186600D01*
X340900Y180250D01*
X385350Y161200D02*
X391700Y167550D01*
X385350Y161200D02*
X372650Y161200D01*
X366300Y167550D01*
X366300Y180250D01*
X372650Y186600D01*
X385350Y186600D01*
X391700Y180250D01*
X366300Y167550D02*
X359950Y161200D01*
X366300Y180250D02*
X359950Y186600D01*
X347250Y186600D01*
X423450Y161200D02*
X436150Y161200D01*
X423450Y161200D02*
X417100Y167550D01*
X417100Y180250D01*
X423450Y186600D01*
X417100Y167550D02*
X410750Y161200D01*
X398050Y161200D01*
X391700Y167550D01*
X391700Y180250D01*
X398050Y186600D01*
X410750Y186600D01*
X417100Y180250D01*
X442500Y180250D02*
X442500Y167550D01*
X436150Y161200D01*
X442500Y180250D02*
X436150Y186600D01*
X423450Y186600D01*
X36100Y167550D02*
X29750Y161200D01*
X17050Y161200D01*
X10700Y167550D01*
X10700Y180250D01*
X17050Y186600D01*
X29750Y186600D01*
X36100Y180250D01*
D14*
X413438Y154977D02*
X413438Y146087D01*
X413436Y145987D01*
X413430Y145888D01*
X413420Y145788D01*
X413407Y145690D01*
X413389Y145591D01*
X413368Y145494D01*
X413343Y145398D01*
X413314Y145302D01*
X413281Y145208D01*
X413245Y145115D01*
X413205Y145024D01*
X413161Y144934D01*
X413114Y144846D01*
X413064Y144760D01*
X413010Y144676D01*
X412953Y144594D01*
X412893Y144515D01*
X412829Y144437D01*
X412763Y144363D01*
X412694Y144291D01*
X412622Y144222D01*
X412548Y144156D01*
X412470Y144092D01*
X412391Y144032D01*
X412309Y143975D01*
X412225Y143921D01*
X412139Y143871D01*
X412051Y143824D01*
X411961Y143780D01*
X411870Y143740D01*
X411777Y143704D01*
X411683Y143671D01*
X411587Y143642D01*
X411491Y143617D01*
X411394Y143596D01*
X411295Y143578D01*
X411197Y143565D01*
X411097Y143555D01*
X410998Y143549D01*
X410898Y143547D01*
X409628Y143547D01*
X419419Y143547D02*
X419419Y154977D01*
X422594Y154977D01*
X422705Y154975D01*
X422815Y154969D01*
X422926Y154960D01*
X423036Y154946D01*
X423145Y154929D01*
X423254Y154908D01*
X423362Y154883D01*
X423469Y154854D01*
X423575Y154822D01*
X423680Y154786D01*
X423783Y154746D01*
X423885Y154703D01*
X423986Y154656D01*
X424085Y154605D01*
X424182Y154552D01*
X424276Y154495D01*
X424369Y154434D01*
X424460Y154371D01*
X424549Y154304D01*
X424635Y154234D01*
X424718Y154161D01*
X424800Y154086D01*
X424878Y154008D01*
X424953Y153926D01*
X425026Y153843D01*
X425096Y153757D01*
X425163Y153668D01*
X425226Y153577D01*
X425287Y153484D01*
X425344Y153389D01*
X425397Y153293D01*
X425448Y153194D01*
X425495Y153093D01*
X425538Y152991D01*
X425578Y152888D01*
X425614Y152783D01*
X425646Y152677D01*
X425675Y152570D01*
X425700Y152462D01*
X425721Y152353D01*
X425738Y152244D01*
X425752Y152134D01*
X425761Y152023D01*
X425767Y151913D01*
X425769Y151802D01*
X425767Y151691D01*
X425761Y151581D01*
X425752Y151470D01*
X425738Y151360D01*
X425721Y151251D01*
X425700Y151142D01*
X425675Y151034D01*
X425646Y150927D01*
X425614Y150821D01*
X425578Y150716D01*
X425538Y150613D01*
X425495Y150511D01*
X425448Y150410D01*
X425397Y150311D01*
X425344Y150214D01*
X425287Y150120D01*
X425226Y150027D01*
X425163Y149936D01*
X425096Y149847D01*
X425026Y149761D01*
X424953Y149678D01*
X424878Y149596D01*
X424800Y149518D01*
X424718Y149443D01*
X424635Y149370D01*
X424549Y149300D01*
X424460Y149233D01*
X424369Y149170D01*
X424276Y149109D01*
X424182Y149052D01*
X424085Y148999D01*
X423986Y148948D01*
X423885Y148901D01*
X423783Y148858D01*
X423680Y148818D01*
X423575Y148782D01*
X423469Y148750D01*
X423362Y148721D01*
X423254Y148696D01*
X423145Y148675D01*
X423036Y148658D01*
X422926Y148644D01*
X422815Y148635D01*
X422705Y148629D01*
X422594Y148627D01*
X419419Y148627D01*
X433770Y154978D02*
X433874Y154976D01*
X433979Y154970D01*
X434083Y154961D01*
X434186Y154948D01*
X434289Y154930D01*
X434391Y154910D01*
X434493Y154885D01*
X434593Y154857D01*
X434693Y154825D01*
X434791Y154789D01*
X434888Y154750D01*
X434983Y154708D01*
X435077Y154662D01*
X435169Y154612D01*
X435259Y154560D01*
X435347Y154504D01*
X435433Y154444D01*
X435517Y154382D01*
X435598Y154317D01*
X435677Y154249D01*
X435754Y154177D01*
X435827Y154104D01*
X435899Y154027D01*
X435967Y153948D01*
X436032Y153867D01*
X436094Y153783D01*
X436154Y153697D01*
X436210Y153609D01*
X436262Y153519D01*
X436312Y153427D01*
X436358Y153333D01*
X436400Y153238D01*
X436439Y153141D01*
X436475Y153043D01*
X436507Y152943D01*
X436535Y152843D01*
X436560Y152741D01*
X436580Y152639D01*
X436598Y152536D01*
X436611Y152433D01*
X436620Y152329D01*
X436626Y152224D01*
X436628Y152120D01*
X433770Y154977D02*
X433652Y154975D01*
X433533Y154969D01*
X433415Y154960D01*
X433298Y154947D01*
X433181Y154929D01*
X433064Y154909D01*
X432948Y154884D01*
X432833Y154856D01*
X432720Y154823D01*
X432607Y154788D01*
X432495Y154748D01*
X432385Y154706D01*
X432276Y154659D01*
X432168Y154609D01*
X432063Y154556D01*
X431959Y154499D01*
X431857Y154439D01*
X431757Y154376D01*
X431659Y154309D01*
X431563Y154240D01*
X431470Y154167D01*
X431379Y154091D01*
X431290Y154013D01*
X431204Y153931D01*
X431121Y153847D01*
X431040Y153761D01*
X430963Y153671D01*
X430888Y153580D01*
X430816Y153486D01*
X430747Y153389D01*
X430682Y153291D01*
X430619Y153190D01*
X430560Y153087D01*
X430504Y152983D01*
X430452Y152877D01*
X430403Y152769D01*
X430358Y152660D01*
X430316Y152549D01*
X430278Y152437D01*
X435675Y149898D02*
X435751Y149973D01*
X435826Y150052D01*
X435897Y150133D01*
X435966Y150217D01*
X436031Y150303D01*
X436093Y150391D01*
X436153Y150481D01*
X436209Y150573D01*
X436262Y150668D01*
X436311Y150764D01*
X436357Y150862D01*
X436400Y150961D01*
X436439Y151062D01*
X436474Y151164D01*
X436506Y151267D01*
X436534Y151371D01*
X436559Y151476D01*
X436580Y151583D01*
X436597Y151689D01*
X436610Y151796D01*
X436619Y151904D01*
X436625Y152012D01*
X436627Y152120D01*
X435675Y149897D02*
X430277Y143547D01*
X436627Y143547D01*
D10*
X75858Y61242D02*
X75858Y49558D01*
X75858Y61242D02*
X79104Y61242D01*
X79217Y61240D01*
X79330Y61234D01*
X79443Y61224D01*
X79556Y61210D01*
X79668Y61193D01*
X79779Y61171D01*
X79889Y61146D01*
X79999Y61116D01*
X80107Y61083D01*
X80214Y61046D01*
X80320Y61006D01*
X80424Y60961D01*
X80527Y60913D01*
X80628Y60862D01*
X80727Y60807D01*
X80824Y60749D01*
X80919Y60687D01*
X81012Y60622D01*
X81102Y60554D01*
X81190Y60483D01*
X81276Y60408D01*
X81359Y60331D01*
X81439Y60251D01*
X81516Y60168D01*
X81591Y60082D01*
X81662Y59994D01*
X81730Y59904D01*
X81795Y59811D01*
X81857Y59716D01*
X81915Y59619D01*
X81970Y59520D01*
X82021Y59419D01*
X82069Y59316D01*
X82114Y59212D01*
X82154Y59106D01*
X82191Y58999D01*
X82224Y58891D01*
X82254Y58781D01*
X82279Y58671D01*
X82301Y58560D01*
X82318Y58448D01*
X82332Y58335D01*
X82342Y58222D01*
X82348Y58109D01*
X82350Y57996D01*
X82348Y57883D01*
X82342Y57770D01*
X82332Y57657D01*
X82318Y57544D01*
X82301Y57432D01*
X82279Y57321D01*
X82254Y57211D01*
X82224Y57101D01*
X82191Y56993D01*
X82154Y56886D01*
X82114Y56780D01*
X82069Y56676D01*
X82021Y56573D01*
X81970Y56472D01*
X81915Y56373D01*
X81857Y56276D01*
X81795Y56181D01*
X81730Y56088D01*
X81662Y55998D01*
X81591Y55910D01*
X81516Y55824D01*
X81439Y55741D01*
X81359Y55661D01*
X81276Y55584D01*
X81190Y55509D01*
X81102Y55438D01*
X81012Y55370D01*
X80919Y55305D01*
X80824Y55243D01*
X80727Y55185D01*
X80628Y55130D01*
X80527Y55079D01*
X80424Y55031D01*
X80320Y54986D01*
X80214Y54946D01*
X80107Y54909D01*
X79999Y54876D01*
X79889Y54846D01*
X79779Y54821D01*
X79668Y54799D01*
X79556Y54782D01*
X79443Y54768D01*
X79330Y54758D01*
X79217Y54752D01*
X79104Y54750D01*
X79104Y54751D02*
X75858Y54751D01*
X79753Y54751D02*
X82349Y49558D01*
X87214Y58646D02*
X90460Y61242D01*
X90460Y49558D01*
X93705Y49558D02*
X87214Y49558D01*
X318758Y62558D02*
X318758Y74242D01*
X322004Y74242D01*
X322117Y74240D01*
X322230Y74234D01*
X322343Y74224D01*
X322456Y74210D01*
X322568Y74193D01*
X322679Y74171D01*
X322789Y74146D01*
X322899Y74116D01*
X323007Y74083D01*
X323114Y74046D01*
X323220Y74006D01*
X323324Y73961D01*
X323427Y73913D01*
X323528Y73862D01*
X323627Y73807D01*
X323724Y73749D01*
X323819Y73687D01*
X323912Y73622D01*
X324002Y73554D01*
X324090Y73483D01*
X324176Y73408D01*
X324259Y73331D01*
X324339Y73251D01*
X324416Y73168D01*
X324491Y73082D01*
X324562Y72994D01*
X324630Y72904D01*
X324695Y72811D01*
X324757Y72716D01*
X324815Y72619D01*
X324870Y72520D01*
X324921Y72419D01*
X324969Y72316D01*
X325014Y72212D01*
X325054Y72106D01*
X325091Y71999D01*
X325124Y71891D01*
X325154Y71781D01*
X325179Y71671D01*
X325201Y71560D01*
X325218Y71448D01*
X325232Y71335D01*
X325242Y71222D01*
X325248Y71109D01*
X325250Y70996D01*
X325248Y70883D01*
X325242Y70770D01*
X325232Y70657D01*
X325218Y70544D01*
X325201Y70432D01*
X325179Y70321D01*
X325154Y70211D01*
X325124Y70101D01*
X325091Y69993D01*
X325054Y69886D01*
X325014Y69780D01*
X324969Y69676D01*
X324921Y69573D01*
X324870Y69472D01*
X324815Y69373D01*
X324757Y69276D01*
X324695Y69181D01*
X324630Y69088D01*
X324562Y68998D01*
X324491Y68910D01*
X324416Y68824D01*
X324339Y68741D01*
X324259Y68661D01*
X324176Y68584D01*
X324090Y68509D01*
X324002Y68438D01*
X323912Y68370D01*
X323819Y68305D01*
X323724Y68243D01*
X323627Y68185D01*
X323528Y68130D01*
X323427Y68079D01*
X323324Y68031D01*
X323220Y67986D01*
X323114Y67946D01*
X323007Y67909D01*
X322899Y67876D01*
X322789Y67846D01*
X322679Y67821D01*
X322568Y67799D01*
X322456Y67782D01*
X322343Y67768D01*
X322230Y67758D01*
X322117Y67752D01*
X322004Y67750D01*
X322004Y67751D02*
X318758Y67751D01*
X322653Y67751D02*
X325249Y62558D01*
X336605Y71321D02*
X336603Y71428D01*
X336597Y71534D01*
X336587Y71640D01*
X336574Y71746D01*
X336556Y71852D01*
X336535Y71956D01*
X336510Y72060D01*
X336481Y72163D01*
X336449Y72264D01*
X336412Y72364D01*
X336372Y72463D01*
X336329Y72561D01*
X336282Y72657D01*
X336231Y72751D01*
X336177Y72843D01*
X336120Y72933D01*
X336060Y73021D01*
X335996Y73106D01*
X335929Y73189D01*
X335859Y73270D01*
X335787Y73348D01*
X335711Y73424D01*
X335633Y73496D01*
X335552Y73566D01*
X335469Y73633D01*
X335384Y73697D01*
X335296Y73757D01*
X335206Y73814D01*
X335114Y73868D01*
X335020Y73919D01*
X334924Y73966D01*
X334826Y74009D01*
X334727Y74049D01*
X334627Y74086D01*
X334526Y74118D01*
X334423Y74147D01*
X334319Y74172D01*
X334215Y74193D01*
X334109Y74211D01*
X334003Y74224D01*
X333897Y74234D01*
X333791Y74240D01*
X333684Y74242D01*
X333563Y74240D01*
X333442Y74234D01*
X333322Y74224D01*
X333201Y74211D01*
X333082Y74193D01*
X332962Y74172D01*
X332844Y74147D01*
X332727Y74118D01*
X332610Y74085D01*
X332495Y74049D01*
X332381Y74008D01*
X332268Y73965D01*
X332156Y73917D01*
X332047Y73866D01*
X331939Y73811D01*
X331832Y73753D01*
X331728Y73692D01*
X331626Y73627D01*
X331526Y73559D01*
X331428Y73488D01*
X331332Y73414D01*
X331239Y73337D01*
X331149Y73256D01*
X331061Y73173D01*
X330976Y73087D01*
X330893Y72998D01*
X330814Y72907D01*
X330737Y72813D01*
X330664Y72717D01*
X330594Y72619D01*
X330527Y72518D01*
X330463Y72415D01*
X330403Y72310D01*
X330346Y72203D01*
X330292Y72095D01*
X330242Y71985D01*
X330196Y71873D01*
X330153Y71760D01*
X330114Y71645D01*
X335632Y69049D02*
X335711Y69126D01*
X335787Y69207D01*
X335860Y69290D01*
X335930Y69375D01*
X335997Y69463D01*
X336061Y69553D01*
X336121Y69645D01*
X336178Y69740D01*
X336232Y69836D01*
X336283Y69934D01*
X336330Y70034D01*
X336374Y70136D01*
X336414Y70239D01*
X336450Y70343D01*
X336482Y70449D01*
X336511Y70555D01*
X336536Y70663D01*
X336558Y70771D01*
X336575Y70881D01*
X336589Y70990D01*
X336598Y71100D01*
X336604Y71211D01*
X336606Y71321D01*
X335632Y69049D02*
X330114Y62558D01*
X336605Y62558D01*
D13*
X244535Y42288D02*
X237351Y49472D01*
X169819Y128498D02*
X162455Y135862D01*
X254234Y134245D02*
X261418Y141430D01*
X174309Y103174D02*
X174309Y97426D01*
D15*
X150437Y84609D02*
X147623Y87423D01*
X150437Y84609D02*
X154188Y84141D01*
X150437Y84609D02*
X150906Y80858D01*
X150437Y84609D02*
X152078Y88127D01*
X150437Y84609D02*
X146919Y82968D01*
X150437Y84609D02*
X147623Y87423D01*
X150437Y84609D02*
X154188Y84141D01*
X150437Y84609D02*
X150906Y80858D01*
X150437Y84609D02*
X152078Y88127D01*
X150437Y84609D02*
X146919Y82968D01*
D16*
X200826Y69334D02*
X210425Y59735D01*
X210424Y59735D02*
X210526Y59636D01*
X210631Y59539D01*
X210739Y59445D01*
X210849Y59355D01*
X210961Y59267D01*
X211076Y59182D01*
X211193Y59101D01*
X211312Y59023D01*
X211434Y58948D01*
X211557Y58876D01*
X211682Y58808D01*
X211809Y58743D01*
X211938Y58682D01*
X212069Y58624D01*
X212201Y58570D01*
X212334Y58520D01*
X212469Y58473D01*
X212605Y58430D01*
X212742Y58390D01*
X212880Y58354D01*
X213019Y58323D01*
X213159Y58295D01*
X213299Y58270D01*
X213440Y58250D01*
X213582Y58233D01*
X213724Y58221D01*
X213867Y58212D01*
X214009Y58207D01*
X214152Y58206D01*
X214294Y58209D01*
X214437Y58216D01*
X214579Y58227D01*
X214721Y58241D01*
X214862Y58260D01*
X215003Y58282D01*
X215143Y58308D01*
X215283Y58338D01*
X215421Y58372D01*
X215559Y58409D01*
X215695Y58451D01*
X215831Y58496D01*
X215965Y58544D01*
X216098Y58597D01*
X216229Y58653D01*
X216358Y58712D01*
X216486Y58775D01*
X216612Y58842D01*
X216737Y58911D01*
X216859Y58985D01*
X216979Y59061D01*
X217098Y59141D01*
X217214Y59224D01*
X217327Y59310D01*
X217439Y59400D01*
X217547Y59492D01*
X217653Y59587D01*
X217757Y59685D01*
X217858Y59786D01*
X217956Y59890D01*
X218051Y59996D01*
X218143Y60105D01*
X218233Y60216D01*
X218319Y60329D01*
X218402Y60445D01*
X218482Y60564D01*
X218558Y60684D01*
X218632Y60806D01*
X218701Y60931D01*
X218768Y61057D01*
X218831Y61185D01*
X218890Y61314D01*
X218946Y61446D01*
X218999Y61578D01*
X219047Y61712D01*
X219092Y61848D01*
X219134Y61984D01*
X219171Y62122D01*
X219205Y62260D01*
X219235Y62400D01*
X219261Y62540D01*
X219283Y62681D01*
X219302Y62822D01*
X219316Y62964D01*
X219327Y63106D01*
X219334Y63249D01*
X219337Y63391D01*
X219336Y63534D01*
X219331Y63677D01*
X219322Y63819D01*
X219310Y63961D01*
X219293Y64103D01*
X219273Y64244D01*
X219248Y64384D01*
X219220Y64524D01*
X219189Y64663D01*
X219153Y64801D01*
X219113Y64938D01*
X219070Y65074D01*
X219023Y65209D01*
X218973Y65342D01*
X218919Y65474D01*
X218861Y65605D01*
X218800Y65734D01*
X218735Y65861D01*
X218667Y65986D01*
X218595Y66109D01*
X218520Y66231D01*
X218442Y66350D01*
X218361Y66467D01*
X218276Y66582D01*
X218188Y66694D01*
X218098Y66804D01*
X218004Y66912D01*
X217907Y67017D01*
X217808Y67119D01*
X208209Y76718D01*
X216811Y79412D02*
X217549Y86058D01*
X230840Y72767D01*
X227148Y69075D02*
X234532Y76459D01*
D17*
X298100Y85100D02*
X310100Y85100D01*
X320100Y91600D02*
X320100Y101600D01*
X288100Y101600D02*
X288100Y91600D01*
X298100Y110100D02*
X310100Y109600D01*
D18*
X290100Y80600D03*
D17*
X290102Y80556D01*
X290108Y80513D01*
X290117Y80471D01*
X290130Y80429D01*
X290147Y80389D01*
X290167Y80350D01*
X290190Y80313D01*
X290217Y80279D01*
X290246Y80246D01*
X290279Y80217D01*
X290313Y80190D01*
X290350Y80167D01*
X290389Y80147D01*
X290429Y80130D01*
X290471Y80117D01*
X290513Y80108D01*
X290556Y80102D01*
X290600Y80100D01*
X290644Y80102D01*
X290687Y80108D01*
X290729Y80117D01*
X290771Y80130D01*
X290811Y80147D01*
X290850Y80167D01*
X290887Y80190D01*
X290921Y80217D01*
X290954Y80246D01*
X290983Y80279D01*
X291010Y80313D01*
X291033Y80350D01*
X291053Y80389D01*
X291070Y80429D01*
X291083Y80471D01*
X291092Y80513D01*
X291098Y80556D01*
X291100Y80600D01*
D18*
X291100Y80600D03*
D17*
X291098Y80644D01*
X291092Y80687D01*
X291083Y80729D01*
X291070Y80771D01*
X291053Y80811D01*
X291033Y80850D01*
X291010Y80887D01*
X290983Y80921D01*
X290954Y80954D01*
X290921Y80983D01*
X290887Y81010D01*
X290850Y81033D01*
X290811Y81053D01*
X290771Y81070D01*
X290729Y81083D01*
X290687Y81092D01*
X290644Y81098D01*
X290600Y81100D01*
X290556Y81098D01*
X290513Y81092D01*
X290471Y81083D01*
X290429Y81070D01*
X290389Y81053D01*
X290350Y81033D01*
X290313Y81010D01*
X290279Y80983D01*
X290246Y80954D01*
X290217Y80921D01*
X290190Y80887D01*
X290167Y80850D01*
X290147Y80811D01*
X290130Y80771D01*
X290117Y80729D01*
X290108Y80687D01*
X290102Y80644D01*
X290100Y80600D01*
D10*
X329815Y110342D02*
X333710Y104825D01*
X337604Y110342D01*
X333710Y104825D02*
X333710Y98658D01*
X341894Y107746D02*
X345140Y110342D01*
X345140Y98658D01*
X348385Y98658D02*
X341894Y98658D01*
M02*
