G04 EAGLE Gerber RS-274X export*
G75*
%MOMM*%
%FSLAX34Y34*%
%LPD*%
%INSolderpaste Top*%
%IPPOS*%
%AMOC8*
5,1,8,0,0,1.08239X$1,22.5*%
G01*
%ADD10R,1.600000X1.800000*%
%ADD11R,1.200000X0.600000*%
%ADD12R,0.600000X0.350000*%
%ADD13R,1.100000X1.700000*%
%ADD14R,1.000000X1.100000*%
%ADD15R,0.508000X1.473200*%
%ADD16R,1.000000X0.800000*%


D10*
X109600Y75900D03*
X137600Y75900D03*
X108800Y124900D03*
X136800Y124900D03*
D11*
X358200Y109200D03*
X358200Y99700D03*
X358200Y90200D03*
X383200Y90200D03*
X383200Y109200D03*
D12*
X112400Y106900D03*
X112400Y100400D03*
X112400Y93900D03*
X133400Y93900D03*
X133400Y100400D03*
X133400Y106900D03*
D13*
X122900Y100400D03*
D14*
X114200Y54700D03*
X131200Y54700D03*
X295100Y66700D03*
X312100Y66700D03*
D15*
G36*
X162635Y83957D02*
X159043Y87549D01*
X169459Y97965D01*
X173051Y94373D01*
X162635Y83957D01*
G37*
G36*
X168203Y78389D02*
X164611Y81981D01*
X175027Y92397D01*
X178619Y88805D01*
X168203Y78389D01*
G37*
G36*
X173951Y72641D02*
X170359Y76233D01*
X180775Y86649D01*
X184367Y83057D01*
X173951Y72641D01*
G37*
G36*
X179518Y67074D02*
X175926Y70666D01*
X186342Y81082D01*
X189934Y77490D01*
X179518Y67074D01*
G37*
G36*
X185266Y61326D02*
X181674Y64918D01*
X192090Y75334D01*
X195682Y71742D01*
X185266Y61326D01*
G37*
G36*
X190833Y55759D02*
X187241Y59351D01*
X197657Y69767D01*
X201249Y66175D01*
X190833Y55759D01*
G37*
G36*
X196581Y50011D02*
X192989Y53603D01*
X203405Y64019D01*
X206997Y60427D01*
X196581Y50011D01*
G37*
G36*
X202149Y44443D02*
X198557Y48035D01*
X208973Y58451D01*
X212565Y54859D01*
X202149Y44443D01*
G37*
G36*
X217235Y54859D02*
X220827Y58451D01*
X231243Y48035D01*
X227651Y44443D01*
X217235Y54859D01*
G37*
G36*
X222803Y60427D02*
X226395Y64019D01*
X236811Y53603D01*
X233219Y50011D01*
X222803Y60427D01*
G37*
G36*
X228551Y66175D02*
X232143Y69767D01*
X242559Y59351D01*
X238967Y55759D01*
X228551Y66175D01*
G37*
G36*
X234118Y71742D02*
X237710Y75334D01*
X248126Y64918D01*
X244534Y61326D01*
X234118Y71742D01*
G37*
G36*
X239866Y77490D02*
X243458Y81082D01*
X253874Y70666D01*
X250282Y67074D01*
X239866Y77490D01*
G37*
G36*
X245433Y83057D02*
X249025Y86649D01*
X259441Y76233D01*
X255849Y72641D01*
X245433Y83057D01*
G37*
G36*
X251181Y88805D02*
X254773Y92397D01*
X265189Y81981D01*
X261597Y78389D01*
X251181Y88805D01*
G37*
G36*
X256749Y94373D02*
X260341Y97965D01*
X270757Y87549D01*
X267165Y83957D01*
X256749Y94373D01*
G37*
G36*
X260341Y102635D02*
X256749Y106227D01*
X267165Y116643D01*
X270757Y113051D01*
X260341Y102635D01*
G37*
G36*
X254773Y108203D02*
X251181Y111795D01*
X261597Y122211D01*
X265189Y118619D01*
X254773Y108203D01*
G37*
G36*
X249025Y113951D02*
X245433Y117543D01*
X255849Y127959D01*
X259441Y124367D01*
X249025Y113951D01*
G37*
G36*
X243458Y119518D02*
X239866Y123110D01*
X250282Y133526D01*
X253874Y129934D01*
X243458Y119518D01*
G37*
G36*
X237710Y125266D02*
X234118Y128858D01*
X244534Y139274D01*
X248126Y135682D01*
X237710Y125266D01*
G37*
G36*
X232143Y130833D02*
X228551Y134425D01*
X238967Y144841D01*
X242559Y141249D01*
X232143Y130833D01*
G37*
G36*
X226395Y136581D02*
X222803Y140173D01*
X233219Y150589D01*
X236811Y146997D01*
X226395Y136581D01*
G37*
G36*
X220827Y142149D02*
X217235Y145741D01*
X227651Y156157D01*
X231243Y152565D01*
X220827Y142149D01*
G37*
G36*
X198557Y152565D02*
X202149Y156157D01*
X212565Y145741D01*
X208973Y142149D01*
X198557Y152565D01*
G37*
G36*
X192989Y146997D02*
X196581Y150589D01*
X206997Y140173D01*
X203405Y136581D01*
X192989Y146997D01*
G37*
G36*
X187241Y141249D02*
X190833Y144841D01*
X201249Y134425D01*
X197657Y130833D01*
X187241Y141249D01*
G37*
G36*
X181674Y135682D02*
X185266Y139274D01*
X195682Y128858D01*
X192090Y125266D01*
X181674Y135682D01*
G37*
G36*
X175926Y129934D02*
X179518Y133526D01*
X189934Y123110D01*
X186342Y119518D01*
X175926Y129934D01*
G37*
G36*
X170359Y124367D02*
X173951Y127959D01*
X184367Y117543D01*
X180775Y113951D01*
X170359Y124367D01*
G37*
G36*
X164611Y118619D02*
X168203Y122211D01*
X178619Y111795D01*
X175027Y108203D01*
X164611Y118619D01*
G37*
G36*
X159043Y113051D02*
X162635Y116643D01*
X173051Y106227D01*
X169459Y102635D01*
X159043Y113051D01*
G37*
D16*
X291100Y87100D03*
X317100Y87100D03*
X317100Y108100D03*
X291100Y108100D03*
M02*
