M48
;GenerationSoftware,Autodesk,EAGLE,9.2.2*%
;CreationDate,2019-07-22T00:58:15Z*%
FMAT,2
ICI,OFF
METRIC,TZ,000.000
T2C0.350
T1C1.016
%
G90
M71
T1
X32820Y2240
X37900Y2240
X40440Y2240
X42980Y2240
X42980Y17390
X40440Y17390
X37900Y17390
X35360Y2240
X35360Y17390
X32820Y17390
X30280Y17390
X27740Y17390
X25200Y17390
X22660Y17390
X17580Y17390
X15040Y17390
X12500Y17390
X9960Y17390
X7420Y17390
X4880Y17390
X2340Y17390
X17580Y2240
X2340Y2240
X4880Y2240
X7420Y2240
X9960Y2240
X12500Y2240
X15040Y2240
X20120Y17390
X20120Y2240
X22660Y2240
X25200Y2240
X27740Y2240
X30280Y2240
T2
X29125Y11750
X36875Y11750
X14250Y10625
X10375Y9125
X32750Y10875
X11125Y4375
X31625Y9875
X28000Y9000
X29625Y13625
X30625Y14375
X28375Y13250
X32875Y15000
X27125Y12875
X19250Y8375
X15500Y4625
X15250Y9000
X9500Y4625
X16000Y7375
X14250Y5625
X14250Y9375
X27375Y11875
X10375Y6125
M30