M48
;GenerationSoftware,Autodesk,EAGLE,9.2.2*%
;CreationDate,2019-07-21T23:34:41Z*%
FMAT,2
ICI,OFF
METRIC,TZ,000.000
T3C0.350
T2C0.900
T1C1.016
%
G90
M71
T1
X7620Y2540
X10160Y2540
X12700Y2540
X15240Y2540
X17780Y2540
X20320Y2540
X22860Y2540
X27940Y2540
X25400Y2540
X30480Y2540
X33020Y2540
X35560Y2540
X38100Y2540
X40640Y2540
X43180Y2540
X2580Y20300
X5120Y20300
X7660Y20300
X10200Y20300
X12740Y20300
X15280Y20300
X17820Y20300
X20360Y20300
X25440Y20300
X27980Y20300
X5080Y2540
X30520Y20300
X33060Y20300
X35600Y20300
X38140Y20300
X40680Y20300
X43220Y20300
X2540Y2540
X22900Y20300
T2
X30480Y14810
X31750Y15810
X33020Y14810
T3
X13259Y7620
X26822Y15850
X8687Y7772
X32156Y8992
X28042Y11430
X7620Y10058
X20879Y12192
X24994Y13106
X22860Y12497
X25908Y12040
X8382Y10668
X26213Y10820
X34290Y14630
X34290Y18136
X22860Y14478
X27889Y14630
X20422Y16764
X26213Y17069
X21336Y13868
X28956Y16307
X22250Y13716
X30480Y16154
X22250Y17374
X24536Y17374
X20269Y17983
X22250Y9449
X27889Y5029
X27280Y17831
X25451Y16459
M30